<?xml version="1.0" encoding="UTF-8"?>
<svg xmlns="http://www.w3.org/2000/svg" xmlns:xlink="http://www.w3.org/1999/xlink" width="50px" height="50px" viewBox="0 0 50 44" version="1.1">
<g id="surface1">
<path style=" stroke:none;fill-rule:nonzero;fill:rgb(0%,0%,0%);fill-opacity:1;" d="M 44.445312 2.75 L 5.554688 2.75 C 2.488281 2.75 0 5.210938 0 8.25 L 0 35.75 C 0 38.789062 2.488281 41.25 5.554688 41.25 L 44.445312 41.25 C 47.511719 41.25 50 38.789062 50 35.75 L 50 8.25 C 50 5.210938 47.507812 2.75 44.445312 2.75 Z M 15.277344 11 C 18.347656 11 20.832031 13.460938 20.832031 16.5 C 20.832031 19.539062 18.347656 22 15.277344 22 C 12.210938 22 9.722656 19.539062 9.722656 16.5 C 9.722656 13.460938 12.214844 11 15.277344 11 Z M 23.609375 33 L 6.945312 33 C 6.175781 33 5.554688 32.382812 5.554688 31.625 C 5.554688 27.828125 8.664062 24.75 12.5 24.75 L 18.054688 24.75 C 21.890625 24.75 25 27.828125 25 31.625 C 25 32.382812 24.375 33 23.609375 33 Z M 43.054688 27.5 L 31.945312 27.5 C 31.179688 27.5 30.554688 26.882812 30.554688 26.125 C 30.554688 25.367188 31.179688 24.75 31.945312 24.75 L 43.054688 24.75 C 43.820312 24.75 44.445312 25.367188 44.445312 26.125 C 44.445312 26.882812 43.820312 27.5 43.054688 27.5 Z M 43.054688 22 L 31.945312 22 C 31.179688 22 30.554688 21.382812 30.554688 20.625 C 30.554688 19.867188 31.179688 19.25 31.945312 19.25 L 43.054688 19.25 C 43.820312 19.25 44.445312 19.867188 44.445312 20.625 C 44.445312 21.382812 43.820312 22 43.054688 22 Z M 43.054688 16.5 L 31.945312 16.5 C 31.179688 16.5 30.554688 15.882812 30.554688 15.125 C 30.554688 14.367188 31.179688 13.75 31.945312 13.75 L 43.054688 13.75 C 43.820312 13.75 44.445312 14.367188 44.445312 15.125 C 44.445312 15.882812 43.820312 16.5 43.054688 16.5 Z M 43.054688 16.5 "/>
</g>
</svg>
