<?xml version="1.0" encoding="UTF-8"?>
<svg xmlns="http://www.w3.org/2000/svg" xmlns:xlink="http://www.w3.org/1999/xlink" width="50px" height="50px" viewBox="0 0 50 57" version="1.1">
<g id="surface1">
<path style=" stroke:none;fill-rule:nonzero;fill:rgb(0%,0%,0%);fill-opacity:1;" d="M 25.035156 30.390625 L 9.855469 45.53125 C 8.804688 46.578125 7.109375 46.578125 6.070312 45.53125 L 3.550781 43.015625 C 2.5 41.96875 2.5 40.277344 3.550781 39.242188 L 14.308594 28.511719 L 3.550781 17.777344 C 2.5 16.734375 2.5 15.039062 3.550781 14.003906 L 6.058594 11.46875 C 7.109375 10.421875 8.804688 10.421875 9.84375 11.46875 L 25.023438 26.609375 C 26.082031 27.652344 26.082031 29.347656 25.035156 30.390625 Z M 46.460938 26.609375 L 31.285156 11.46875 C 30.234375 10.421875 28.539062 10.421875 27.5 11.46875 L 24.976562 13.984375 C 23.929688 15.03125 23.929688 16.722656 24.976562 17.757812 L 35.738281 28.488281 L 24.976562 39.222656 C 23.929688 40.265625 23.929688 41.960938 24.976562 42.996094 L 27.5 45.511719 C 28.550781 46.558594 30.246094 46.558594 31.285156 45.511719 L 46.460938 30.371094 C 47.511719 29.347656 47.511719 27.652344 46.460938 26.609375 Z M 46.460938 26.609375 "/>
</g>
</svg>
