<?xml version="1.0" encoding="UTF-8"?>
<svg xmlns="http://www.w3.org/2000/svg" xmlns:xlink="http://www.w3.org/1999/xlink" width="50px" height="50px" viewBox="0 0 50 57" version="1.1">
<g id="surface1">
<path style=" stroke:none;fill-rule:nonzero;fill:rgb(0%,0%,0%);fill-opacity:1;" d="M 24.964844 26.609375 L 40.144531 11.46875 C 41.195312 10.421875 42.890625 10.421875 43.929688 11.46875 L 46.449219 13.984375 C 47.5 15.03125 47.5 16.722656 46.449219 17.757812 L 35.703125 28.5 L 46.460938 39.230469 C 47.511719 40.277344 47.511719 41.96875 46.460938 43.007812 L 43.941406 45.53125 C 42.890625 46.578125 41.195312 46.578125 40.15625 45.53125 L 24.976562 30.390625 C 23.917969 29.347656 23.917969 27.652344 24.964844 26.609375 Z M 3.539062 30.390625 L 18.714844 45.53125 C 19.765625 46.578125 21.460938 46.578125 22.5 45.53125 L 25.023438 43.015625 C 26.070312 41.96875 26.070312 40.277344 25.023438 39.242188 L 14.273438 28.5 L 25.035156 17.769531 C 26.082031 16.722656 26.082031 15.03125 25.035156 13.992188 L 22.511719 11.46875 C 21.460938 10.421875 19.765625 10.421875 18.726562 11.46875 L 3.550781 26.609375 C 2.488281 27.652344 2.488281 29.347656 3.539062 30.390625 Z M 3.539062 30.390625 "/>
</g>
</svg>
