<?xml version="1.0" encoding="UTF-8"?>
<svg xmlns="http://www.w3.org/2000/svg" xmlns:xlink="http://www.w3.org/1999/xlink" width="50px" height="50px" viewBox="0 0 50 57" version="1.1">
<g id="surface1">
<path style=" stroke:none;fill-rule:nonzero;fill:rgb(0%,0%,0%);fill-opacity:1;" d="M 46.105469 24.769531 L 48.582031 27.242188 C 49.632812 28.289062 49.632812 29.980469 48.582031 31.015625 L 26.898438 52.65625 C 25.847656 53.703125 24.152344 53.703125 23.113281 52.65625 L 1.417969 31.015625 C 0.367188 29.96875 0.367188 28.277344 1.417969 27.242188 L 3.894531 24.769531 C 4.957031 23.714844 6.683594 23.734375 7.722656 24.816406 L 20.535156 38.230469 L 20.535156 6.234375 C 20.535156 4.753906 21.730469 3.5625 23.214844 3.5625 L 26.785156 3.5625 C 28.269531 3.5625 29.464844 4.753906 29.464844 6.234375 L 29.464844 38.230469 L 42.277344 24.816406 C 43.316406 23.722656 45.042969 23.703125 46.105469 24.769531 Z M 46.105469 24.769531 "/>
</g>
</svg>
