<?xml version="1.0" encoding="UTF-8"?>
<svg xmlns="http://www.w3.org/2000/svg" xmlns:xlink="http://www.w3.org/1999/xlink" width="50px" height="50px" viewBox="0 0 50 57" version="1.1">
<g id="surface1">
<path style=" stroke:none;fill-rule:nonzero;fill:rgb(0%,0%,0%);fill-opacity:1;" d="M 3.894531 32.230469 L 1.417969 29.757812 C 0.367188 28.710938 0.367188 27.019531 1.417969 25.984375 L 23.101562 4.34375 C 24.152344 3.296875 25.847656 3.296875 26.886719 4.34375 L 48.570312 25.972656 C 49.621094 27.019531 49.621094 28.710938 48.570312 29.746094 L 46.09375 32.21875 C 45.035156 33.277344 43.304688 33.253906 42.265625 32.171875 L 29.464844 18.769531 L 29.464844 50.765625 C 29.464844 52.246094 28.269531 53.4375 26.785156 53.4375 L 23.214844 53.4375 C 21.730469 53.4375 20.535156 52.246094 20.535156 50.765625 L 20.535156 18.769531 L 7.722656 32.183594 C 6.683594 33.277344 4.957031 33.296875 3.894531 32.230469 Z M 3.894531 32.230469 "/>
</g>
</svg>
