<?xml version="1.0" encoding="UTF-8"?>
<svg xmlns="http://www.w3.org/2000/svg" xmlns:xlink="http://www.w3.org/1999/xlink" width="50px" height="50px" viewBox="0 0 50 57" version="1.1">
<g id="surface1">
<path style=" stroke:none;fill-rule:nonzero;fill:rgb(0%,0%,0%);fill-opacity:1;" d="M 21.261719 7.449219 L 23.738281 4.976562 C 24.789062 3.929688 26.484375 3.929688 27.523438 4.976562 L 49.21875 26.609375 C 50.269531 27.652344 50.269531 29.347656 49.21875 30.382812 L 27.523438 52.023438 C 26.472656 53.070312 24.777344 53.070312 23.738281 52.023438 L 21.261719 49.550781 C 20.199219 48.496094 20.222656 46.769531 21.304688 45.734375 L 34.753906 32.953125 L 2.679688 32.953125 C 1.195312 32.953125 0 31.761719 0 30.28125 L 0 26.71875 C 0 25.238281 1.195312 24.046875 2.679688 24.046875 L 34.753906 24.046875 L 21.304688 11.265625 C 20.210938 10.230469 20.191406 8.503906 21.261719 7.449219 Z M 21.261719 7.449219 "/>
</g>
</svg>
