<?xml version="1.0" encoding="UTF-8"?>
<svg xmlns="http://www.w3.org/2000/svg" xmlns:xlink="http://www.w3.org/1999/xlink" width="50px" height="50px" viewBox="0 0 50 57" version="1.1">
<g id="surface1">
<path style=" stroke:none;fill-rule:nonzero;fill:rgb(0%,0%,0%);fill-opacity:1;" d="M 28.738281 49.550781 L 26.261719 52.023438 C 25.210938 53.070312 23.515625 53.070312 22.476562 52.023438 L 0.78125 30.390625 C -0.269531 29.347656 -0.269531 27.652344 0.78125 26.617188 L 22.476562 4.976562 C 23.527344 3.929688 25.222656 3.929688 26.261719 4.976562 L 28.738281 7.449219 C 29.800781 8.503906 29.777344 10.230469 28.695312 11.265625 L 15.246094 24.046875 L 47.320312 24.046875 C 48.804688 24.046875 50 25.238281 50 26.71875 L 50 30.28125 C 50 31.761719 48.804688 32.953125 47.320312 32.953125 L 15.246094 32.953125 L 28.695312 45.734375 C 29.789062 46.769531 29.808594 48.496094 28.738281 49.550781 Z M 28.738281 49.550781 "/>
</g>
</svg>
