<?xml version="1.0" encoding="UTF-8"?>
<svg xmlns="http://www.w3.org/2000/svg" xmlns:xlink="http://www.w3.org/1999/xlink" width="50px" height="50px" viewBox="0 0 50 50" version="1.1">
<g id="surface1">
<path style=" stroke:none;fill-rule:nonzero;fill:rgb(0%,0%,0%);fill-opacity:1;" d="M 21.09375 25.390625 C 21.09375 26.902344 19.871094 28.125 18.359375 28.125 C 16.847656 28.125 15.625 26.902344 15.625 25.390625 C 15.625 21.082031 19.128906 17.578125 23.4375 17.578125 C 27.746094 17.578125 31.25 21.082031 31.25 25.390625 C 31.25 26.902344 30.027344 28.125 28.515625 28.125 C 27.003906 28.125 25.78125 26.902344 25.78125 25.390625 C 25.78125 24.097656 24.730469 23.046875 23.4375 23.046875 C 22.144531 23.046875 21.09375 24.097656 21.09375 25.390625 Z M 23.4375 8.203125 C 13.960938 8.203125 6.25 15.914062 6.25 25.390625 C 6.25 26.902344 7.472656 28.125 8.984375 28.125 C 10.496094 28.125 11.71875 26.902344 11.71875 25.390625 C 11.71875 18.929688 16.976562 13.671875 23.4375 13.671875 C 29.898438 13.671875 35.15625 18.929688 35.15625 25.390625 C 35.15625 32.730469 28.222656 32.257812 28.125 39.417969 L 28.125 39.453125 C 28.125 42.253906 25.847656 44.53125 23.046875 44.53125 C 21.535156 44.53125 20.3125 45.753906 20.3125 47.265625 C 20.3125 48.777344 21.535156 50 23.046875 50 C 28.855469 50 33.582031 45.28125 33.59375 39.476562 C 33.652344 36.113281 40.625 34.765625 40.625 25.390625 C 40.625 15.914062 32.914062 8.203125 23.4375 8.203125 Z M 15.625 31.25 C 13.898438 31.25 12.5 32.648438 12.5 34.375 C 12.5 36.101562 13.898438 37.5 15.625 37.5 C 17.351562 37.5 18.75 36.101562 18.75 34.375 C 18.75 32.648438 17.351562 31.25 15.625 31.25 Z M 3.125 43.75 C 1.398438 43.75 0 45.148438 0 46.875 C 0 48.601562 1.398438 50 3.125 50 C 4.851562 50 6.25 48.601562 6.25 46.875 C 6.25 45.148438 4.851562 43.75 3.125 43.75 Z M 50 25.390625 C 50 25.242188 50 25.097656 49.996094 24.949219 C 49.8125 13.722656 42.59375 3.757812 32.03125 0.148438 C 30.601562 -0.339844 29.046875 0.421875 28.558594 1.851562 C 28.070312 3.28125 28.832031 4.835938 30.261719 5.324219 C 38.652344 8.1875 44.382812 16.113281 44.527344 25.042969 L 44.527344 25.0625 C 44.53125 25.171875 44.53125 25.28125 44.53125 25.390625 C 44.53125 26.902344 45.753906 28.125 47.265625 28.125 C 48.777344 28.125 50 26.902344 50 25.390625 Z M 14.9375 42.875 L 7.125 35.0625 L 3.8125 38.375 L 11.625 46.1875 Z M 14.9375 42.875 "/>
</g>
</svg>
