<?xml version="1.0" encoding="UTF-8"?>
<svg xmlns="http://www.w3.org/2000/svg" xmlns:xlink="http://www.w3.org/1999/xlink" width="50px" height="50px" viewBox="0 0 50 57" version="1.1">
<g id="surface1">
<path style=" stroke:none;fill-rule:nonzero;fill:rgb(0%,0%,0%);fill-opacity:1;" d="M 0 10.6875 C 0 8.71875 1.597656 7.125 3.570312 7.125 L 46.429688 7.125 C 48.402344 7.125 50 8.71875 50 10.6875 C 50 12.65625 48.402344 14.25 46.429688 14.25 L 3.570312 14.25 C 1.597656 14.25 0 12.65625 0 10.6875 Z M 0 28.5 C 0 26.53125 1.597656 24.9375 3.570312 24.9375 L 46.429688 24.9375 C 48.402344 24.9375 50 26.53125 50 28.5 C 50 30.46875 48.402344 32.0625 46.429688 32.0625 L 3.570312 32.0625 C 1.597656 32.0625 0 30.46875 0 28.5 Z M 46.429688 49.875 L 3.570312 49.875 C 1.597656 49.875 0 48.28125 0 46.3125 C 0 44.34375 1.597656 42.75 3.570312 42.75 L 46.429688 42.75 C 48.402344 42.75 50 44.34375 50 46.3125 C 50 48.28125 48.402344 49.875 46.429688 49.875 Z M 46.429688 49.875 "/>
</g>
</svg>
