<?xml version="1.0" encoding="UTF-8"?>
<svg xmlns="http://www.w3.org/2000/svg" xmlns:xlink="http://www.w3.org/1999/xlink" width="50px" height="50px" viewBox="0 0 50 50" version="1.1">
<g id="surface1">
<path style=" stroke:none;fill-rule:nonzero;fill:rgb(0%,0%,0%);fill-opacity:1;" d="M 11.792969 19.476562 L 14.421875 19.476562 C 15.277344 19.476562 15.871094 18.542969 15.578125 17.648438 C 15.195312 16.476562 14.992188 15.234375 14.992188 13.957031 C 14.992188 12.675781 15.195312 11.433594 15.578125 10.261719 C 15.871094 9.367188 15.277344 8.433594 14.421875 8.433594 L 11.792969 8.433594 C 11.246094 8.433594 10.742188 8.820312 10.589844 9.402344 C 10.210938 10.867188 10.003906 12.390625 10.003906 13.957031 C 10.003906 15.519531 10.210938 17.042969 10.589844 18.507812 C 10.742188 19.089844 11.246094 19.476562 11.792969 19.476562 Z M 7.035156 4.925781 C 7.472656 4.007812 6.882812 2.910156 5.945312 2.910156 L 3.191406 2.910156 C 2.703125 2.910156 2.246094 3.21875 2.042969 3.714844 C 0.757812 6.839844 0.0234375 10.300781 0.0234375 13.957031 C 0.0234375 16.089844 0.269531 19.851562 2.105469 24.210938 C 2.308594 24.695312 2.761719 25 3.246094 25 L 5.960938 25 C 6.898438 25 7.488281 23.902344 7.046875 22.984375 C 3.167969 14.929688 5.746094 7.613281 7.035156 4.925781 Z M 47.894531 3.710938 C 47.691406 3.21875 47.234375 2.910156 46.746094 2.910156 L 43.984375 2.910156 C 43.050781 2.910156 42.453125 4.003906 42.890625 4.917969 C 44.316406 7.875 46.667969 15.222656 42.914062 22.96875 C 42.46875 23.890625 43.054688 25 43.996094 25 L 46.746094 25 C 47.234375 25 47.691406 24.691406 47.890625 24.199219 C 49.179688 21.070312 49.917969 17.609375 49.917969 13.957031 C 49.917969 10.300781 49.183594 6.839844 47.894531 3.710938 Z M 38.148438 8.433594 L 35.519531 8.433594 C 34.660156 8.433594 34.070312 9.367188 34.363281 10.261719 C 34.746094 11.433594 34.949219 12.675781 34.949219 13.957031 C 34.949219 15.234375 34.746094 16.476562 34.363281 17.648438 C 34.070312 18.542969 34.660156 19.476562 35.519531 19.476562 L 38.148438 19.476562 C 38.695312 19.476562 39.199219 19.089844 39.351562 18.507812 C 39.734375 17.042969 39.9375 15.519531 39.9375 13.957031 C 39.9375 12.390625 39.730469 10.867188 39.351562 9.402344 C 39.199219 8.820312 38.695312 8.433594 38.148438 8.433594 Z M 29.082031 17.070312 C 29.632812 16.183594 29.957031 15.113281 29.957031 13.957031 C 29.957031 10.90625 27.726562 8.433594 24.96875 8.433594 C 22.21875 8.433594 19.984375 10.90625 19.984375 13.957031 C 19.984375 15.113281 20.308594 16.183594 20.859375 17.070312 L 10.683594 44.113281 C 10.417969 44.816406 10.71875 45.625 11.355469 45.917969 L 13.65625 46.980469 C 14.292969 47.273438 15.023438 46.941406 15.285156 46.238281 L 19.121094 36.042969 L 30.820312 36.042969 L 34.65625 46.238281 C 34.921875 46.941406 35.648438 47.273438 36.285156 46.980469 L 38.585938 45.917969 C 39.222656 45.625 39.519531 44.816406 39.257812 44.113281 Z M 21.199219 30.523438 L 24.96875 20.496094 L 28.742188 30.523438 Z M 21.199219 30.523438 "/>
</g>
</svg>
