<?xml version="1.0" encoding="UTF-8"?>
<svg xmlns="http://www.w3.org/2000/svg" xmlns:xlink="http://www.w3.org/1999/xlink" width="50px" height="50px" viewBox="0 0 50 50" version="1.1">
<g id="surface1">
<path style=" stroke:none;fill-rule:nonzero;fill:rgb(0%,0%,0%);fill-opacity:1;" d="M 39.695312 39.023438 C 37.832031 34.460938 33.351562 31.25 28.125 31.25 L 21.875 31.25 C 16.648438 31.25 12.167969 34.460938 10.304688 39.023438 C 6.828125 35.371094 4.6875 30.4375 4.6875 25 C 4.6875 13.78125 13.78125 4.6875 25 4.6875 C 36.21875 4.6875 45.3125 13.78125 45.3125 25 C 45.3125 30.4375 43.171875 35.371094 39.695312 39.023438 Z M 35.78125 42.21875 C 32.65625 44.179688 28.964844 45.3125 25 45.3125 C 21.035156 45.3125 17.34375 44.179688 14.210938 42.21875 C 14.921875 38.632812 18.085938 35.9375 21.875 35.9375 L 28.125 35.9375 C 31.914062 35.9375 35.078125 38.632812 35.789062 42.21875 Z M 25 50 C 38.808594 50 50 38.808594 50 25 C 50 11.191406 38.808594 0 25 0 C 11.191406 0 0 11.191406 0 25 C 0 38.808594 11.191406 50 25 50 Z M 25 23.4375 C 22.84375 23.4375 21.09375 21.6875 21.09375 19.53125 C 21.09375 17.375 22.84375 15.625 25 15.625 C 27.15625 15.625 28.90625 17.375 28.90625 19.53125 C 28.90625 21.6875 27.15625 23.4375 25 23.4375 Z M 16.40625 19.53125 C 16.40625 24.277344 20.253906 28.125 25 28.125 C 29.746094 28.125 33.59375 24.277344 33.59375 19.53125 C 33.59375 14.785156 29.746094 10.9375 25 10.9375 C 20.253906 10.9375 16.40625 14.785156 16.40625 19.53125 Z M 16.40625 19.53125 "/>
</g>
</svg>
