<?xml version="1.0" encoding="UTF-8"?>
<svg xmlns="http://www.w3.org/2000/svg" xmlns:xlink="http://www.w3.org/1999/xlink" width="50px" height="50px" viewBox="0 0 50 50" version="1.1">
<g id="surface1">
<path style=" stroke:none;fill-rule:nonzero;fill:rgb(0%,0%,0%);fill-opacity:1;" d="M 45.3125 25 C 45.3125 36.21875 36.21875 45.3125 25 45.3125 C 13.78125 45.3125 4.6875 36.21875 4.6875 25 C 4.6875 13.78125 13.78125 4.6875 25 4.6875 C 36.21875 4.6875 45.3125 13.78125 45.3125 25 Z M 0 25 C 0 38.808594 11.191406 50 25 50 C 38.808594 50 50 38.808594 50 25 C 50 11.191406 38.808594 0 25 0 C 11.191406 0 0 11.191406 0 25 Z M 22.65625 11.71875 L 22.65625 25 C 22.65625 25.78125 23.046875 26.515625 23.703125 26.953125 L 33.078125 33.203125 C 34.148438 33.925781 35.605469 33.632812 36.328125 32.546875 C 37.050781 31.464844 36.757812 30.019531 35.671875 29.296875 L 27.34375 23.75 L 27.34375 11.71875 C 27.34375 10.421875 26.296875 9.375 25 9.375 C 23.703125 9.375 22.65625 10.421875 22.65625 11.71875 Z M 22.65625 11.71875 "/>
</g>
</svg>
