<?xml version="1.0" encoding="UTF-8"?>
<svg xmlns="http://www.w3.org/2000/svg" xmlns:xlink="http://www.w3.org/1999/xlink" width="50px" height="50px" viewBox="0 0 50 40" version="1.1">
<g id="surface1">
<path style=" stroke:none;fill-rule:nonzero;fill:rgb(0%,0%,0%);fill-opacity:1;" d="M 42 17.703125 C 42.320312 16.867188 42.5 15.953125 42.5 15 C 42.5 10.859375 39.140625 7.5 35 7.5 C 33.460938 7.5 32.023438 7.96875 30.835938 8.765625 C 28.671875 5.015625 24.632812 2.5 20 2.5 C 13.09375 2.5 7.5 8.09375 7.5 15 C 7.5 15.210938 7.507812 15.421875 7.515625 15.632812 C 3.140625 17.171875 0 21.34375 0 26.25 C 0 32.460938 5.039062 37.5 11.25 37.5 L 40 37.5 C 45.523438 37.5 50 33.023438 50 27.5 C 50 22.664062 46.5625 18.625 42 17.703125 Z M 30.734375 22.5 L 25.625 22.5 L 25.625 31.25 C 25.625 31.9375 25.0625 32.5 24.375 32.5 L 20.625 32.5 C 19.9375 32.5 19.375 31.9375 19.375 31.25 L 19.375 22.5 L 14.265625 22.5 C 13.148438 22.5 12.59375 21.15625 13.382812 20.367188 L 21.617188 12.132812 C 22.101562 11.648438 22.898438 11.648438 23.382812 12.132812 L 31.617188 20.367188 C 32.40625 21.15625 31.84375 22.5 30.734375 22.5 Z M 30.734375 22.5 "/>
</g>
</svg>
