<?xml version="1.0" encoding="UTF-8" standalone="no"?>
<svg
   width="50px"
   height="50px"
   viewBox="0 0 50 50"
   version="1.1"
   id="svg5"
   sodipodi:docname="comment-config.svg"
   xml:space="preserve"
   inkscape:version="1.2.2 (b0a8486541, 2022-12-01)"
   xmlns:inkscape="http://www.inkscape.org/namespaces/inkscape"
   xmlns:sodipodi="http://sodipodi.sourceforge.net/DTD/sodipodi-0.dtd"
   xmlns="http://www.w3.org/2000/svg"
   xmlns:svg="http://www.w3.org/2000/svg"><defs
     id="defs9" /><sodipodi:namedview
     id="namedview7"
     pagecolor="#ffffff"
     bordercolor="#000000"
     borderopacity="0.25"
     inkscape:showpageshadow="2"
     inkscape:pageopacity="0.0"
     inkscape:pagecheckerboard="0"
     inkscape:deskcolor="#d1d1d1"
     showgrid="false"
     inkscape:zoom="7.82"
     inkscape:cx="30.370844"
     inkscape:cy="35.421995"
     inkscape:window-width="1920"
     inkscape:window-height="1011"
     inkscape:window-x="0"
     inkscape:window-y="0"
     inkscape:window-maximized="1"
     inkscape:current-layer="svg5" /><g
     id="surface1"><path
       style=" stroke:none;fill-rule:nonzero;fill:rgb(0%,0%,0%);fill-opacity:1;"
       d="M 25 3.125 C 11.191406 3.125 0 12.21875 0 23.4375 C 0 28.085938 1.941406 32.34375 5.164062 35.773438 C 3.710938 39.617188 0.683594 42.882812 0.632812 42.921875 C -0.0078125 43.601562 -0.1875 44.601562 0.1875 45.460938 C 0.558594 46.320312 1.40625 46.875 2.34375 46.875 C 8.351562 46.875 13.085938 44.367188 15.929688 42.351562 C 18.75 43.242188 21.796875 43.75 25 43.75 C 38.808594 43.75 50 34.65625 50 23.4375 C 50 12.21875 38.808594 3.125 25 3.125 Z M 25 39.0625 C 22.390625 39.0625 19.8125 38.664062 17.34375 37.882812 L 15.125 37.179688 L 13.222656 38.523438 C 11.828125 39.511719 9.914062 40.617188 7.609375 41.359375 C 8.320312 40.175781 9.015625 38.847656 9.550781 37.429688 L 10.585938 34.6875 L 8.574219 32.558594 C 6.804688 30.675781 4.6875 27.558594 4.6875 23.4375 C 4.6875 14.824219 13.800781 7.8125 25 7.8125 C 36.203125 7.8125 45.3125 14.824219 45.3125 23.4375 C 45.3125 32.050781 36.203125 39.0625 25 39.0625 Z M 25 39.0625 "
       id="path2" /></g><path
     style="fill:#000000;fill-opacity:1;fill-rule:nonzero;stroke:none;stroke-width:0.40856"
     d="m 31.517568,24.716117 c -0.365291,0.06813 -0.51428,0.51023 -0.266798,0.788506 l 2.788306,3.135229 -0.609223,2.677263 -2.730075,0.292532 -2.788307,-3.13523 c -0.248983,-0.279961 -0.705732,-0.17882 -0.816133,0.177613 -0.578972,1.860516 -0.195608,3.967634 1.191709,5.529254 1.486396,1.671336 3.750452,2.238774 5.783589,1.699197 l 8.001944,8.997554 c 0.937528,1.052479 2.551446,1.147003 3.605424,0.211159 1.052478,-0.937528 1.147,-2.551444 0.211159,-3.605423 l -7.99604,-8.989216 c 0.782878,-1.957284 0.476959,-4.267692 -1.018344,-5.950741 -1.390497,-1.561807 -3.441738,-2.187121 -5.357211,-1.827697 z m 13.418476,18.519928 c -0.03089,0.527352 -0.484557,0.930823 -1.011908,0.899938 -0.528944,-0.03098 -0.930823,-0.484557 -0.899938,-1.011909 0.03089,-0.52735 0.482965,-0.930916 1.011909,-0.899938 0.527351,0.03089 0.930823,0.484559 0.899937,1.011909 z m 0,0"
     id="path292" /></svg>
