<?xml version="1.0" encoding="UTF-8"?>
<svg xmlns="http://www.w3.org/2000/svg" xmlns:xlink="http://www.w3.org/1999/xlink" width="50px" height="50px" viewBox="0 0 50 50" version="1.1">
<g id="surface1">
<path style=" stroke:none;fill-rule:nonzero;fill:rgb(0%,0%,0%);fill-opacity:1;" d="M 25 3.125 C 11.191406 3.125 0 12.21875 0 23.4375 C 0 28.085938 1.941406 32.34375 5.164062 35.773438 C 3.710938 39.617188 0.683594 42.882812 0.632812 42.921875 C -0.0078125 43.601562 -0.1875 44.601562 0.1875 45.460938 C 0.558594 46.320312 1.40625 46.875 2.34375 46.875 C 8.351562 46.875 13.085938 44.367188 15.929688 42.351562 C 18.75 43.242188 21.796875 43.75 25 43.75 C 38.808594 43.75 50 34.65625 50 23.4375 C 50 12.21875 38.808594 3.125 25 3.125 Z M 25 39.0625 C 22.390625 39.0625 19.8125 38.664062 17.34375 37.882812 L 15.125 37.179688 L 13.222656 38.523438 C 11.828125 39.511719 9.914062 40.617188 7.609375 41.359375 C 8.320312 40.175781 9.015625 38.847656 9.550781 37.429688 L 10.585938 34.6875 L 8.574219 32.558594 C 6.804688 30.675781 4.6875 27.558594 4.6875 23.4375 C 4.6875 14.824219 13.800781 7.8125 25 7.8125 C 36.203125 7.8125 45.3125 14.824219 45.3125 23.4375 C 45.3125 32.050781 36.203125 39.0625 25 39.0625 Z M 25 39.0625 "/>
</g>
</svg>
