<?xml version="1.0" encoding="UTF-8"?>
<svg xmlns="http://www.w3.org/2000/svg" xmlns:xlink="http://www.w3.org/1999/xlink" width="50px" height="50px" viewBox="0 0 50 50" version="1.1">
<g id="surface1">
<path style=" stroke:none;fill-rule:nonzero;fill:rgb(0%,0%,0%);fill-opacity:1;" d="M 6.824219 29.222656 C 7.578125 27.699219 7.347656 25.820312 6.246094 24.570312 C 4.605469 22.703125 3.726562 20.460938 3.726562 18.125 C 3.726562 12.832031 8.644531 7.453125 16.058594 7.453125 C 23.46875 7.453125 28.386719 12.832031 28.386719 18.125 C 28.386719 23.421875 23.46875 28.796875 16.058594 28.796875 C 15.046875 28.796875 14.070312 28.691406 13.144531 28.5 C 12.34375 28.332031 11.507812 28.449219 10.777344 28.847656 C 10.460938 29.023438 10.136719 29.191406 9.804688 29.347656 C 8.574219 29.949219 7.269531 30.472656 5.960938 30.847656 C 6.175781 30.464844 6.378906 30.089844 6.570312 29.714844 C 6.65625 29.558594 6.738281 29.390625 6.816406 29.222656 Z M 0.0273438 18.125 C 0.0273438 21.609375 1.351562 24.804688 3.5625 27.324219 C 3.496094 27.464844 3.417969 27.613281 3.347656 27.746094 C 2.554688 29.28125 1.628906 30.789062 0.527344 32.089844 C 0.0195312 32.675781 -0.113281 33.527344 0.171875 34.25 C 0.472656 34.992188 1.136719 35.46875 1.875 35.46875 C 5.191406 35.46875 8.542969 34.359375 11.332031 32.992188 C 11.703125 32.808594 12.074219 32.617188 12.425781 32.425781 C 13.589844 32.675781 14.808594 32.800781 16.058594 32.800781 C 24.910156 32.800781 32.085938 26.230469 32.085938 18.125 C 32.085938 10.023438 24.910156 3.453125 16.058594 3.453125 C 7.203125 3.453125 0.0273438 10.023438 0.0273438 18.125 Z M 33.320312 43.472656 C 34.570312 43.472656 35.777344 43.339844 36.949219 43.097656 C 37.304688 43.289062 37.675781 43.480469 38.042969 43.664062 C 40.835938 45.03125 44.1875 46.140625 47.5 46.140625 C 48.242188 46.140625 48.902344 45.664062 49.195312 44.933594 C 49.488281 44.199219 49.351562 43.347656 48.839844 42.773438 C 47.746094 41.472656 46.820312 39.960938 46.019531 38.429688 C 45.953125 38.285156 45.875 38.144531 45.804688 38.003906 C 48.023438 35.476562 49.351562 32.285156 49.351562 28.796875 C 49.351562 20.925781 42.574219 14.5 34.074219 14.140625 C 34.390625 15.40625 34.554688 16.742188 34.554688 18.125 L 34.554688 18.175781 C 41.273438 18.734375 45.652344 23.804688 45.652344 28.796875 C 45.652344 31.132812 44.773438 33.375 43.128906 35.234375 C 42.027344 36.484375 41.796875 38.371094 42.550781 39.886719 C 42.636719 40.054688 42.722656 40.222656 42.800781 40.378906 C 42.992188 40.753906 43.199219 41.128906 43.40625 41.511719 C 42.097656 41.136719 40.796875 40.621094 39.5625 40.011719 C 39.230469 39.855469 38.90625 39.6875 38.589844 39.511719 C 37.859375 39.113281 37.027344 38.996094 36.226562 39.160156 C 35.292969 39.363281 34.320312 39.460938 33.3125 39.460938 C 28.558594 39.460938 24.835938 37.253906 22.769531 34.269531 C 21.535156 34.71875 20.242188 35.050781 18.914062 35.25 C 21.527344 40.121094 27 43.472656 33.320312 43.472656 Z M 33.320312 43.472656 "/>
</g>
</svg>
