<?xml version="1.0" encoding="UTF-8"?>
<svg xmlns="http://www.w3.org/2000/svg" xmlns:xlink="http://www.w3.org/1999/xlink" width="50px" height="50px" viewBox="0 0 50 50" version="1.1">
<g id="surface1">
<path style=" stroke:none;fill-rule:nonzero;fill:rgb(0%,0%,0%);fill-opacity:1;" d="M 45.3125 25 C 45.3125 13.78125 36.21875 4.6875 25 4.6875 C 13.78125 4.6875 4.6875 13.78125 4.6875 25 C 4.6875 36.21875 13.78125 45.3125 25 45.3125 C 36.21875 45.3125 45.3125 36.21875 45.3125 25 Z M 0 25 C 0 11.191406 11.191406 0 25 0 C 38.808594 0 50 11.191406 50 25 C 50 38.808594 38.808594 50 25 50 C 11.191406 50 0 38.808594 0 25 Z M 29.953125 31.75 L 15.859375 37.167969 C 13.964844 37.898438 12.101562 36.035156 12.832031 34.140625 L 18.25 20.046875 C 18.574219 19.21875 19.21875 18.574219 20.046875 18.25 L 34.140625 12.832031 C 36.035156 12.101562 37.898438 13.964844 37.167969 15.859375 L 31.75 29.953125 C 31.4375 30.78125 30.78125 31.425781 29.953125 31.746094 Z M 28.125 25 C 28.125 23.273438 26.726562 21.875 25 21.875 C 23.273438 21.875 21.875 23.273438 21.875 25 C 21.875 26.726562 23.273438 28.125 25 28.125 C 26.726562 28.125 28.125 26.726562 28.125 25 Z M 28.125 25 "/>
</g>
</svg>
