<?xml version="1.0" encoding="UTF-8"?>
<svg xmlns="http://www.w3.org/2000/svg" xmlns:xlink="http://www.w3.org/1999/xlink" width="50px" height="50px" viewBox="0 0 50 50" version="1.1">
<defs>
<linearGradient id="linear0" gradientUnits="userSpaceOnUse" x1="31.957268" y1="29.751493" x2="-45.041405" y2="-18.591616" gradientTransform="matrix(0.976733,0,0,0.976733,1.60684,1.791635)">
<stop offset="0" style="stop-color:rgb(21.176471%,30.588235%,34.901961%);stop-opacity:1;"/>
<stop offset="1" style="stop-color:rgb(21.176471%,30.588235%,34.901961%);stop-opacity:0;"/>
</linearGradient>
</defs>
<g id="surface1">
<path style="fill-rule:nonzero;fill:rgb(100%,100%,100%);fill-opacity:1;stroke-width:0.574051;stroke-linecap:butt;stroke-linejoin:round;stroke:rgb(0%,0%,0%);stroke-opacity:0.439216;stroke-miterlimit:4;" d="M 24.015 1.28625 C 11.4675 1.28625 1.28625 11.4675 1.28625 24.015 C 1.28625 36.56625 11.4675 46.74375 24.015 46.74375 C 38.355 46.4025 33.63 42.04125 47.71125 47.71125 C 40.16625 34.71 46.63125 34.38375 46.74375 24.015 C 46.74375 11.4675 36.56625 1.28625 24.015 1.28625 Z M 24.015 1.28625 " transform="matrix(1.041667,0,0,1.041667,0,0)"/>
<path style=" stroke:none;fill-rule:nonzero;fill:url(#linear0);" d="M 24.980469 5.53125 C 14.214844 5.664062 5.480469 14.511719 5.480469 25.289062 C 5.480469 36.0625 14.214844 44.699219 24.980469 44.566406 C 35.21875 44.527344 32.8125 38.847656 44.128906 44.105469 C 37.929688 34.421875 44.335938 33.132812 44.480469 24.8125 C 44.480469 14.035156 35.75 5.402344 24.980469 5.53125 Z M 24.980469 5.53125 "/>
<path style=" stroke:none;fill-rule:nonzero;fill:rgb(100%,100%,100%);fill-opacity:1;" d="M 25.128906 22.136719 C 24.335938 21.417969 23.230469 20.558594 21.816406 19.554688 C 20.261719 18.453125 19.214844 17.585938 18.671875 16.957031 C 18.132812 16.316406 17.863281 15.617188 17.863281 14.859375 C 17.863281 13.730469 18.515625 12.84375 19.816406 12.199219 C 21.117188 11.546875 22.816406 11.21875 24.914062 11.21875 C 27.011719 11.21875 28.835938 11.507812 30.390625 12.085938 C 31.964844 12.664062 32.75 13.457031 32.75 14.472656 C 32.75 14.960938 32.558594 15.363281 32.179688 15.6875 C 31.796875 16.007812 31.351562 16.167969 30.84375 16.167969 C 30.113281 16.167969 29.257812 15.726562 28.273438 14.839844 C 27.273438 13.941406 26.421875 13.3125 25.722656 12.953125 C 25.039062 12.578125 24.238281 12.394531 23.316406 12.394531 C 22.144531 12.394531 21.175781 12.605469 20.410156 13.027344 C 19.664062 13.453125 19.292969 13.992188 19.292969 14.644531 C 19.292969 15.261719 19.601562 15.839844 20.222656 16.378906 C 20.839844 16.917969 22.4375 17.902344 25.007812 19.324219 C 27.757812 20.851562 29.695312 22.046875 30.820312 22.90625 C 31.964844 23.765625 32.894531 24.8125 33.609375 26.046875 C 34.324219 27.277344 34.679688 28.582031 34.679688 29.953125 C 34.679688 32.367188 33.625 34.5 31.511719 36.347656 C 29.414062 38.183594 26.960938 39.101562 24.152344 39.101562 C 21.59375 39.101562 19.433594 38.363281 17.671875 36.886719 C 15.910156 35.410156 15.027344 33.4375 15.027344 30.972656 C 15.027344 28.601562 15.996094 26.617188 17.933594 25.023438 C 19.886719 23.433594 22.285156 22.46875 25.128906 22.136719 Z M 26.175781 23.023438 C 21.617188 23.625 19.339844 26.15625 19.339844 30.609375 C 19.339844 32.90625 19.902344 34.691406 21.03125 35.960938 C 22.175781 37.234375 23.5 37.867188 25.007812 37.867188 C 26.582031 37.867188 27.875 37.257812 28.890625 36.039062 C 29.90625 34.804688 30.417969 33.144531 30.417969 31.050781 C 30.417969 28.023438 29.003906 25.347656 26.175781 23.023438 Z M 26.175781 23.023438 "/>
</g>
</svg>
