<?xml version="1.0" encoding="UTF-8"?>
<svg xmlns="http://www.w3.org/2000/svg" xmlns:xlink="http://www.w3.org/1999/xlink" width="50px" height="50px" viewBox="0 0 50 44" version="1.1">
<g id="surface1">
<path style=" stroke:none;fill-rule:nonzero;fill:rgb(0%,0%,0%);fill-opacity:1;" d="M 34.921875 29.640625 L 37.699219 26.890625 C 38.132812 26.460938 38.890625 26.761719 38.890625 27.378906 L 38.890625 39.875 C 38.890625 42.152344 37.023438 44 34.722656 44 L 4.167969 44 C 1.867188 44 0 42.152344 0 39.875 L 0 9.625 C 0 7.347656 1.867188 5.5 4.167969 5.5 L 27.90625 5.5 C 28.523438 5.5 28.835938 6.238281 28.402344 6.675781 L 25.625 9.425781 C 25.496094 9.554688 25.320312 9.625 25.128906 9.625 L 4.167969 9.625 L 4.167969 39.875 L 34.722656 39.875 L 34.722656 30.121094 C 34.722656 29.941406 34.792969 29.769531 34.921875 29.640625 Z M 48.515625 12.296875 L 25.71875 34.863281 L 17.875 35.722656 C 15.597656 35.972656 13.664062 34.074219 13.914062 31.804688 L 14.78125 24.035156 L 37.578125 1.46875 C 39.566406 -0.5 42.777344 -0.5 44.757812 1.46875 L 48.507812 5.183594 C 50.496094 7.148438 50.496094 10.339844 48.515625 12.296875 Z M 39.9375 14.953125 L 34.894531 9.960938 L 18.765625 25.9375 L 18.132812 31.546875 L 23.800781 30.921875 Z M 45.5625 8.105469 L 41.8125 4.390625 C 41.457031 4.039062 40.875 4.039062 40.53125 4.390625 L 37.847656 7.046875 L 42.890625 12.039062 L 45.574219 9.382812 C 45.921875 9.023438 45.921875 8.457031 45.5625 8.105469 Z M 45.5625 8.105469 "/>
</g>
</svg>
