<?xml version="1.0" encoding="UTF-8"?>
<svg xmlns="http://www.w3.org/2000/svg" xmlns:xlink="http://www.w3.org/1999/xlink" width="50px" height="50px" viewBox="0 0 50 50" version="1.1">
<g id="surface1">
<path style=" stroke:none;fill-rule:nonzero;fill:rgb(0%,0%,0%);fill-opacity:1;" d="M 45.3125 6.25 L 4.6875 6.25 C 2.097656 6.25 0 8.347656 0 10.9375 L 0 39.0625 C 0 41.652344 2.097656 43.75 4.6875 43.75 L 45.3125 43.75 C 47.902344 43.75 50 41.652344 50 39.0625 L 50 10.9375 C 50 8.347656 47.902344 6.25 45.3125 6.25 Z M 45.3125 10.9375 L 45.3125 14.921875 C 43.121094 16.707031 39.632812 19.476562 32.167969 25.320312 C 30.523438 26.617188 27.265625 29.722656 25 29.6875 C 22.734375 29.722656 19.476562 26.613281 17.832031 25.320312 C 10.367188 19.480469 6.878906 16.707031 4.6875 14.921875 L 4.6875 10.9375 Z M 4.6875 39.0625 L 4.6875 20.9375 C 6.925781 22.71875 10.097656 25.222656 14.933594 29.007812 C 17.070312 30.6875 20.808594 34.398438 25 34.375 C 29.171875 34.398438 32.863281 30.742188 35.0625 29.007812 C 39.902344 25.222656 43.074219 22.71875 45.3125 20.9375 L 45.3125 39.0625 Z M 4.6875 39.0625 "/>
</g>
</svg>
