<?xml version="1.0" encoding="UTF-8"?>
<svg xmlns="http://www.w3.org/2000/svg" xmlns:xlink="http://www.w3.org/1999/xlink" width="50px" height="50px" viewBox="0 0 50 44" version="1.1">
<g id="surface1">
<path style=" stroke:none;fill-rule:nonzero;fill:rgb(0%,0%,0%);fill-opacity:1;" d="M 25 12.375 C 24.078125 12.390625 23.167969 12.535156 22.289062 12.804688 C 22.695312 13.511719 22.910156 14.3125 22.917969 15.125 C 22.917969 17.78125 20.742188 19.9375 18.054688 19.9375 C 17.234375 19.933594 16.425781 19.71875 15.710938 19.316406 C 14.554688 23.285156 16.09375 27.542969 19.535156 29.886719 C 22.972656 32.226562 27.539062 32.125 30.871094 29.636719 C 34.203125 27.148438 35.550781 22.828125 34.21875 18.910156 C 32.886719 14.996094 29.175781 12.363281 25 12.375 Z M 49.699219 20.746094 C 44.992188 11.652344 35.671875 5.5 25 5.5 C 14.328125 5.5 5.007812 11.65625 0.300781 20.746094 C -0.101562 21.535156 -0.101562 22.464844 0.300781 23.253906 C 5.007812 32.347656 14.328125 38.5 25 38.5 C 35.671875 38.5 44.992188 32.34375 49.699219 23.253906 C 50.101562 22.464844 50.101562 21.535156 49.699219 20.746094 Z M 25 34.375 C 16.4375 34.375 8.585938 29.648438 4.347656 22 C 8.585938 14.351562 16.4375 9.625 25 9.625 C 33.5625 9.625 41.414062 14.351562 45.652344 22 C 41.414062 29.648438 33.5625 34.375 25 34.375 Z M 25 34.375 "/>
</g>
</svg>
