<?xml version="1.0" encoding="UTF-8"?>
<svg xmlns="http://www.w3.org/2000/svg" xmlns:xlink="http://www.w3.org/1999/xlink" width="50px" height="50px" viewBox="0 0 50 51" version="1.1">
<g id="surface1">
<path style=" stroke:none;fill-rule:nonzero;fill:rgb(0%,0%,0%);fill-opacity:1;" d="M 16.722656 39.585938 C 16.722656 39.785156 16.492188 39.945312 16.199219 39.945312 C 15.867188 39.972656 15.636719 39.8125 15.636719 39.585938 C 15.636719 39.386719 15.867188 39.226562 16.160156 39.226562 C 16.460938 39.195312 16.722656 39.355469 16.722656 39.585938 Z M 13.589844 39.136719 C 13.519531 39.335938 13.71875 39.566406 14.023438 39.625 C 14.285156 39.722656 14.585938 39.625 14.648438 39.425781 C 14.707031 39.226562 14.515625 38.996094 14.214844 38.90625 C 13.953125 38.835938 13.660156 38.9375 13.589844 39.136719 Z M 18.042969 38.96875 C 17.753906 39.035156 17.550781 39.226562 17.582031 39.457031 C 17.609375 39.65625 17.871094 39.785156 18.175781 39.714844 C 18.46875 39.644531 18.667969 39.457031 18.640625 39.257812 C 18.609375 39.066406 18.335938 38.9375 18.042969 38.96875 Z M 24.675781 0.796875 C 10.695312 0.796875 0 11.285156 0 25.101562 C 0 36.148438 7.035156 45.601562 17.085938 48.929688 C 18.378906 49.15625 18.832031 48.371094 18.832031 47.722656 C 18.832031 47.105469 18.800781 43.699219 18.800781 41.605469 C 18.800781 41.605469 11.742188 43.101562 10.261719 38.636719 C 10.261719 38.636719 9.113281 35.738281 7.460938 34.992188 C 7.460938 34.992188 5.152344 33.429688 7.621094 33.457031 C 7.621094 33.457031 10.132812 33.65625 11.511719 36.027344 C 13.71875 39.875 17.417969 38.769531 18.859375 38.109375 C 19.09375 36.515625 19.746094 35.410156 20.472656 34.753906 C 14.839844 34.136719 9.152344 33.328125 9.152344 23.746094 C 9.152344 21.007812 9.917969 19.632812 11.53125 17.878906 C 11.269531 17.230469 10.414062 14.5625 11.792969 11.117188 C 13.902344 10.46875 18.75 13.804688 18.75 13.804688 C 20.765625 13.246094 22.933594 12.960938 25.082031 12.960938 C 27.226562 12.960938 29.394531 13.246094 31.410156 13.804688 C 31.410156 13.804688 36.261719 10.457031 38.367188 11.117188 C 39.746094 14.574219 38.890625 17.230469 38.628906 17.878906 C 40.242188 19.644531 41.230469 21.015625 41.230469 23.746094 C 41.230469 33.359375 35.292969 34.125 29.65625 34.753906 C 30.585938 35.539062 31.371094 37.035156 31.371094 39.375 C 31.371094 42.730469 31.339844 46.886719 31.339844 47.703125 C 31.339844 48.351562 31.804688 49.136719 33.085938 48.90625 C 43.164062 45.601562 50 36.148438 50 25.101562 C 50 11.285156 38.660156 0.796875 24.675781 0.796875 Z M 9.796875 35.152344 C 9.667969 35.25 9.699219 35.480469 9.867188 35.671875 C 10.03125 35.828125 10.261719 35.898438 10.394531 35.769531 C 10.523438 35.671875 10.492188 35.441406 10.324219 35.25 C 10.160156 35.09375 9.929688 35.023438 9.796875 35.152344 Z M 8.710938 34.34375 C 8.640625 34.476562 8.738281 34.632812 8.941406 34.734375 C 9.101562 34.832031 9.304688 34.804688 9.375 34.664062 C 9.445312 34.535156 9.34375 34.375 9.144531 34.277344 C 8.941406 34.214844 8.78125 34.246094 8.710938 34.34375 Z M 11.976562 37.890625 C 11.816406 38.019531 11.875 38.320312 12.105469 38.507812 C 12.339844 38.738281 12.632812 38.769531 12.761719 38.609375 C 12.894531 38.480469 12.832031 38.179688 12.632812 37.992188 C 12.410156 37.761719 12.105469 37.730469 11.976562 37.890625 Z M 10.828125 36.425781 C 10.664062 36.527344 10.664062 36.785156 10.828125 37.015625 C 10.988281 37.242188 11.261719 37.34375 11.390625 37.242188 C 11.550781 37.113281 11.550781 36.855469 11.390625 36.625 C 11.25 36.398438 10.988281 36.296875 10.828125 36.425781 Z M 10.828125 36.425781 "/>
</g>
</svg>
