<?xml version="1.0" encoding="UTF-8"?>
<svg xmlns="http://www.w3.org/2000/svg" xmlns:xlink="http://www.w3.org/1999/xlink" width="50px" height="50px" viewBox="0 0 50 51" version="1.1">
<g id="surface1">
<path style=" stroke:none;fill-rule:nonzero;fill:rgb(0%,0%,0%);fill-opacity:1;" d="M 25 0.796875 C 11.191406 0.796875 0 11.855469 0 25.5 C 0 39.144531 11.191406 50.203125 25 50.203125 C 38.808594 50.203125 50 39.144531 50 25.5 C 50 11.855469 38.808594 0.796875 25 0.796875 Z M 33.296875 36.417969 C 32.902344 36.804688 32.488281 37.210938 32.15625 37.539062 C 31.855469 37.839844 31.640625 38.207031 31.535156 38.609375 C 31.382812 39.171875 31.257812 39.742188 31.050781 40.289062 L 29.300781 44.953125 C 27.914062 45.253906 26.476562 45.421875 25 45.421875 L 25 42.695312 C 25.171875 41.4375 24.230469 39.082031 22.71875 37.589844 C 22.113281 36.992188 21.773438 36.179688 21.773438 35.335938 L 21.773438 32.148438 C 21.773438 30.988281 21.140625 29.921875 20.113281 29.359375 C 18.667969 28.570312 16.605469 27.460938 15.195312 26.761719 C 14.039062 26.183594 12.964844 25.453125 12.003906 24.59375 L 11.921875 24.523438 C 11.234375 23.90625 10.625 23.214844 10.101562 22.457031 C 9.15625 21.085938 7.617188 18.828125 6.617188 17.363281 C 8.679688 12.828125 12.398438 9.191406 17.019531 7.210938 L 19.441406 8.410156 C 20.511719 8.9375 21.773438 8.167969 21.773438 6.984375 L 21.773438 5.859375 C 22.578125 5.730469 23.398438 5.648438 24.234375 5.617188 L 27.085938 8.4375 C 27.714844 9.058594 27.714844 10.066406 27.085938 10.691406 L 26.613281 11.15625 L 25.570312 12.1875 C 25.257812 12.496094 25.257812 13.003906 25.570312 13.3125 L 26.042969 13.78125 C 26.359375 14.089844 26.359375 14.597656 26.042969 14.90625 L 25.238281 15.703125 C 25.085938 15.851562 24.878906 15.9375 24.667969 15.9375 L 23.761719 15.9375 C 23.550781 15.9375 23.347656 16.015625 23.199219 16.164062 L 22.199219 17.125 C 21.945312 17.367188 21.882812 17.742188 22.039062 18.050781 L 23.609375 21.15625 C 23.878906 21.6875 23.488281 22.3125 22.890625 22.3125 L 22.320312 22.3125 C 22.125 22.3125 21.9375 22.242188 21.792969 22.117188 L 20.855469 21.3125 C 20.425781 20.945312 19.832031 20.828125 19.289062 21.003906 L 16.148438 22.039062 C 15.65625 22.203125 15.324219 22.65625 15.324219 23.167969 C 15.324219 23.621094 15.582031 24.03125 15.988281 24.234375 L 17.105469 24.785156 C 18.054688 25.253906 19.101562 25.5 20.164062 25.5 C 21.222656 25.5 22.441406 28.21875 23.386719 28.6875 L 30.117188 28.6875 C 30.972656 28.6875 31.792969 29.023438 32.398438 29.621094 L 33.777344 30.984375 C 34.355469 31.554688 34.679688 32.328125 34.679688 33.132812 C 34.679688 34.367188 34.179688 35.546875 33.296875 36.417969 Z M 42.035156 27.316406 C 41.453125 27.171875 40.945312 26.820312 40.609375 26.324219 L 38.796875 23.636719 C 38.253906 22.835938 38.253906 21.789062 38.796875 20.988281 L 40.773438 18.058594 C 41.007812 17.714844 41.328125 17.433594 41.703125 17.25 L 43.011719 16.601562 C 44.375 19.285156 45.160156 22.300781 45.160156 25.5 C 45.160156 26.363281 45.085938 27.210938 44.976562 28.042969 Z M 42.035156 27.316406 "/>
</g>
</svg>
