<?xml version="1.0" encoding="UTF-8"?>
<svg xmlns="http://www.w3.org/2000/svg" xmlns:xlink="http://www.w3.org/1999/xlink" width="50px" height="50px" viewBox="0 0 50 44" version="1.1">
<g id="surface1">
<path style=" stroke:none;fill-rule:nonzero;fill:rgb(0%,0%,0%);fill-opacity:1;" d="M 19.484375 0.359375 C 18.945312 0.34375 18.417969 0.648438 18.183594 1.164062 C 17.867188 1.851562 18.175781 2.671875 18.871094 2.984375 L 29.804688 7.90625 L 5.554688 7.90625 C 2.488281 7.90625 0 10.367188 0 13.40625 L 0 35.75 C 0 38.789062 2.488281 41.25 5.554688 41.25 L 44.445312 41.25 C 47.511719 41.25 50 38.789062 50 35.75 L 50 13.40625 C 50 10.367188 47.507812 7.90625 44.445312 7.90625 L 36.515625 7.90625 L 20.019531 0.480469 C 19.847656 0.402344 19.664062 0.363281 19.484375 0.359375 Z M 15.230469 13.761719 C 20.785156 13.761719 25.285156 18.21875 25.285156 23.714844 C 25.285156 29.214844 20.785156 33.671875 15.230469 33.671875 C 9.679688 33.671875 5.179688 29.214844 5.179688 23.714844 C 5.179688 18.21875 9.679688 13.761719 15.230469 13.761719 Z M 31.945312 17.1875 L 43.054688 17.1875 C 43.820312 17.1875 44.445312 17.804688 44.445312 18.5625 C 44.445312 19.320312 43.820312 19.9375 43.054688 19.9375 L 31.945312 19.9375 C 31.179688 19.9375 30.554688 19.320312 30.554688 18.5625 C 30.554688 17.804688 31.179688 17.1875 31.945312 17.1875 Z M 31.945312 22.6875 L 43.054688 22.6875 C 43.820312 22.6875 44.445312 23.304688 44.445312 24.0625 C 44.445312 24.820312 43.820312 25.4375 43.054688 25.4375 L 31.945312 25.4375 C 31.179688 25.4375 30.554688 24.820312 30.554688 24.0625 C 30.554688 23.304688 31.179688 22.6875 31.945312 22.6875 Z M 31.945312 28.1875 L 43.054688 28.1875 C 43.820312 28.1875 44.445312 28.804688 44.445312 29.5625 C 44.445312 30.320312 43.820312 30.9375 43.054688 30.9375 L 31.945312 30.9375 C 31.179688 30.9375 30.554688 30.320312 30.554688 29.5625 C 30.554688 28.804688 31.179688 28.1875 31.945312 28.1875 Z M 31.945312 28.1875 "/>
<path style=" stroke:none;fill-rule:nonzero;fill:rgb(0%,0%,0%);fill-opacity:1;" d="M 22.152344 23.714844 C 22.152344 27.5 19.054688 30.570312 15.230469 30.570312 C 11.410156 30.570312 8.308594 27.5 8.308594 23.714844 C 8.308594 19.933594 11.410156 16.863281 15.230469 16.863281 C 19.054688 16.863281 22.152344 19.933594 22.152344 23.714844 Z M 22.152344 23.714844 "/>
</g>
</svg>
