<?xml version="1.0" encoding="UTF-8" standalone="no"?>
<svg
   xmlns:dc="http://purl.org/dc/elements/1.1/"
   xmlns:cc="http://creativecommons.org/ns#"
   xmlns:rdf="http://www.w3.org/1999/02/22-rdf-syntax-ns#"
   xmlns:svg="http://www.w3.org/2000/svg"
   xmlns="http://www.w3.org/2000/svg"
   xmlns:sodipodi="http://sodipodi.sourceforge.net/DTD/sodipodi-0.dtd"
   xmlns:inkscape="http://www.inkscape.org/namespaces/inkscape"
   viewBox="0 0 576 512"
   version="1.1"
   id="svg60"
   sodipodi:docname="ham-radio.svg"
   inkscape:version="0.92.2 5c3e80d, 2017-08-06">
  <metadata
     id="metadata66">
    <rdf:RDF>
      <cc:Work
         rdf:about="">
        <dc:format>image/svg+xml</dc:format>
        <dc:type
           rdf:resource="http://purl.org/dc/dcmitype/StillImage" />
        <dc:title></dc:title>
      </cc:Work>
    </rdf:RDF>
  </metadata>
  <defs
     id="defs64" />
  <sodipodi:namedview
     pagecolor="#ffffff"
     bordercolor="#666666"
     borderopacity="1"
     objecttolerance="10"
     gridtolerance="10"
     guidetolerance="10"
     inkscape:pageopacity="0"
     inkscape:pageshadow="2"
     inkscape:window-width="1285"
     inkscape:window-height="688"
     id="namedview62"
     showgrid="false"
     showguides="true"
     inkscape:guide-bbox="true"
     inkscape:zoom="0.41865965"
     inkscape:cx="384.44215"
     inkscape:cy="248.4809"
     inkscape:window-x="0"
     inkscape:window-y="0"
     inkscape:window-maximized="0"
     inkscape:current-layer="svg60" />
  <!--! Font Awesome Pro 6.1.1 by @fontawesome - https://fontawesome.com License - https://fontawesome.com/license (Commercial License) Copyright 2022 Fonticons, Inc. -->
  <path
     d="M 224.46289 4.1679688 C 218.23104 4.0117866 212.18519 7.5252255 209.45312 13.533203 C 205.81036 21.54384 209.38389 31.077944 217.39453 34.720703 L 343.35352 92 L 64 92 C 28.65 92 0 120.65 0 156 L 0 416 C 0 451.35 28.65 480 64 480 L 512 480 C 547.35 480 576 451.35 576 416 L 576 156 C 576 120.65 547.3 92 512 92 L 420.66211 92 L 230.64062 5.5898438 C 228.63797 4.679154 226.54017 4.2200295 224.46289 4.1679688 z M 175.47266 160.15625 A 115.82136 115.82136 0 0 1 291.29297 275.97656 A 115.82136 115.82136 0 0 1 175.47266 391.79883 A 115.82136 115.82136 0 0 1 59.650391 275.97656 A 115.82136 115.82136 0 0 1 175.47266 160.15625 z M 368 200 L 496 200 C 504.8 200 512 207.2 512 216 C 512 224.8 504.8 232 496 232 L 368 232 C 359.2 232 352 224.8 352 216 C 352 207.2 359.2 200 368 200 z M 368 264 L 496 264 C 504.8 264 512 271.2 512 280 C 512 288.8 504.8 296 496 296 L 368 296 C 359.2 296 352 288.8 352 280 C 352 271.2 359.2 264 368 264 z M 368 328 L 496 328 C 504.8 328 512 335.2 512 344 C 512 352.8 504.8 360 496 360 L 368 360 C 359.2 360 352 352.8 352 344 C 352 335.2 359.2 328 368 328 z "
     id="path58" />
  <circle
     style="fill:#000000;fill-opacity:1;stroke:none;stroke-width:14.00599861;stroke-linecap:round;stroke-linejoin:bevel;stroke-miterlimit:4;stroke-dasharray:none;stroke-opacity:1;paint-order:markers stroke fill"
     id="path96"
     cx="175.47185"
     cy="275.97672"
     r="79.736305" />
</svg>
