<?xml version="1.0" encoding="UTF-8"?>
<svg xmlns="http://www.w3.org/2000/svg" xmlns:xlink="http://www.w3.org/1999/xlink" width="50px" height="50px" viewBox="0 0 50 44" version="1.1">
<g id="surface1">
<path style=" stroke:none;fill-rule:nonzero;fill:rgb(0%,0%,0%);fill-opacity:1;" d="M 49.984375 21.957031 C 49.984375 23.503906 48.679688 24.714844 47.203125 24.714844 L 44.425781 24.714844 L 44.488281 38.484375 C 44.488281 38.714844 44.46875 38.945312 44.445312 39.179688 L 44.445312 40.5625 C 44.445312 42.460938 42.890625 44 40.972656 44 L 39.582031 44 C 39.488281 44 39.390625 44 39.296875 43.992188 C 39.175781 44 39.054688 44 38.933594 44 L 34.027344 44 C 32.109375 44 30.554688 42.460938 30.554688 40.5625 L 30.554688 33 C 30.554688 31.480469 29.3125 30.25 27.777344 30.25 L 22.222656 30.25 C 20.6875 30.25 19.445312 31.480469 19.445312 33 L 19.445312 40.5625 C 19.445312 42.460938 17.890625 44 15.972656 44 L 11.121094 44 C 10.988281 44 10.859375 43.992188 10.730469 43.984375 C 10.625 43.992188 10.519531 44 10.417969 44 L 9.027344 44 C 7.109375 44 5.554688 42.460938 5.554688 40.5625 L 5.554688 30.9375 C 5.554688 30.859375 5.554688 30.773438 5.5625 30.695312 L 5.5625 24.714844 L 2.777344 24.714844 C 1.214844 24.714844 0 23.511719 0 21.957031 C 0 21.183594 0.261719 20.496094 0.867188 19.894531 L 23.125 0.6875 C 23.734375 0.0859375 24.425781 0 25.035156 0 C 25.640625 0 26.335938 0.171875 26.859375 0.601562 L 49.027344 19.894531 C 49.722656 20.496094 50.070312 21.183594 49.984375 21.957031 Z M 49.984375 21.957031 "/>
</g>
</svg>
