<?xml version="1.0" encoding="UTF-8"?>
<svg xmlns="http://www.w3.org/2000/svg" xmlns:xlink="http://www.w3.org/1999/xlink" width="50px" height="50px" viewBox="0 0 50 50" version="1.1">
<g id="surface1">
<path style=" stroke:none;fill-rule:nonzero;fill:rgb(0%,0%,0%);fill-opacity:1;" d="M 50 17.1875 C 50 26.679688 42.304688 34.375 32.8125 34.375 C 31.714844 34.375 30.644531 34.269531 29.605469 34.074219 L 27.261719 36.714844 C 26.816406 37.214844 26.179688 37.5 25.511719 37.5 L 21.875 37.5 L 21.875 41.40625 C 21.875 42.699219 20.824219 43.75 19.53125 43.75 L 15.625 43.75 L 15.625 47.65625 C 15.625 48.949219 14.574219 50 13.28125 50 L 2.34375 50 C 1.050781 50 0 48.949219 0 47.65625 L 0 40.035156 C 0 39.410156 0.246094 38.816406 0.6875 38.375 L 16.488281 22.574219 C 15.929688 20.878906 15.625 19.070312 15.625 17.1875 C 15.625 7.695312 23.320312 0 32.8125 0 C 42.332031 0 50 7.667969 50 17.1875 Z M 32.8125 12.5 C 32.8125 15.089844 34.910156 17.1875 37.5 17.1875 C 40.089844 17.1875 42.1875 15.089844 42.1875 12.5 C 42.1875 9.910156 40.089844 7.8125 37.5 7.8125 C 34.910156 7.8125 32.8125 9.910156 32.8125 12.5 Z M 32.8125 12.5 "/>
</g>
</svg>
