<?xml version="1.0" encoding="UTF-8"?>
<svg xmlns="http://www.w3.org/2000/svg" xmlns:xlink="http://www.w3.org/1999/xlink" width="50px" height="50px" viewBox="0 0 50 44" version="1.1">
<g id="surface1">
<path style=" stroke:none;fill-rule:nonzero;fill:rgb(0%,0%,0%);fill-opacity:1;" d="M 36.761719 0 C 29.46875 0.0273438 23.609375 5.972656 23.609375 13.191406 L 23.609375 19.25 L 4.167969 19.25 C 1.867188 19.25 0 21.097656 0 23.375 L 0 39.875 C 0 42.152344 1.867188 44 4.167969 44 L 34.722656 44 C 37.023438 44 38.890625 42.152344 38.890625 39.875 L 38.890625 23.375 C 38.890625 21.097656 37.023438 19.25 34.722656 19.25 L 30.554688 19.25 L 30.554688 13.140625 C 30.554688 9.738281 33.308594 6.910156 36.746094 6.875 C 40.21875 6.839844 43.054688 9.632812 43.054688 13.0625 L 43.054688 19.9375 C 43.054688 21.082031 43.984375 22 45.140625 22 L 47.917969 22 C 49.070312 22 50 21.082031 50 19.9375 L 50 13.0625 C 50 5.84375 44.054688 -0.0273438 36.761719 0 Z M 36.761719 0 "/>
</g>
</svg>
