<?xml version="1.0" encoding="UTF-8"?>
<svg xmlns="http://www.w3.org/2000/svg" xmlns:xlink="http://www.w3.org/1999/xlink" width="50px" height="50px" viewBox="0 0 50 57" version="1.1">
<g id="surface1">
<path style=" stroke:none;fill-rule:nonzero;fill:rgb(0%,0%,0%);fill-opacity:1;" d="M 44.644531 24.9375 L 41.964844 24.9375 L 41.964844 16.921875 C 41.964844 7.59375 34.351562 0 25 0 C 15.648438 0 8.035156 7.59375 8.035156 16.921875 L 8.035156 24.9375 L 5.355469 24.9375 C 2.398438 24.9375 0 27.332031 0 30.28125 L 0 51.65625 C 0 54.605469 2.398438 57 5.355469 57 L 44.644531 57 C 47.601562 57 50 54.605469 50 51.65625 L 50 30.28125 C 50 27.332031 47.601562 24.9375 44.644531 24.9375 Z M 33.035156 24.9375 L 16.964844 24.9375 L 16.964844 16.921875 C 16.964844 12.503906 20.570312 8.90625 25 8.90625 C 29.429688 8.90625 33.035156 12.503906 33.035156 16.921875 Z M 33.035156 24.9375 "/>
</g>
</svg>
