<?xml version="1.0" encoding="UTF-8"?>
<svg xmlns="http://www.w3.org/2000/svg" xmlns:xlink="http://www.w3.org/1999/xlink" width="50px" height="50px" viewBox="0 0 50 50" version="1.1">
<g id="surface1">
<path style=" stroke:none;fill-rule:nonzero;fill:rgb(0%,0%,0%);fill-opacity:1;" d="M 48.859375 43.328125 L 37.167969 31.640625 C 39.828125 27.695312 41.136719 22.765625 40.4375 17.507812 C 39.238281 8.574219 31.914062 1.300781 22.96875 0.167969 C 9.667969 -1.515625 -1.515625 9.667969 0.167969 22.96875 C 1.300781 31.917969 8.574219 39.25 17.511719 40.4375 C 22.765625 41.140625 27.699219 39.832031 31.644531 37.171875 L 43.332031 48.859375 C 44.859375 50.386719 47.332031 50.386719 48.855469 48.859375 C 50.382812 47.335938 50.382812 44.851562 48.859375 43.328125 Z M 7.722656 20.3125 C 7.722656 13.421875 13.332031 7.8125 20.226562 7.8125 C 27.117188 7.8125 32.726562 13.421875 32.726562 20.3125 C 32.726562 27.203125 27.117188 32.8125 20.226562 32.8125 C 13.332031 32.8125 7.722656 27.207031 7.722656 20.3125 Z M 7.722656 20.3125 "/>
</g>
</svg>
