<?xml version="1.0" encoding="UTF-8"?>
<svg xmlns="http://www.w3.org/2000/svg" xmlns:xlink="http://www.w3.org/1999/xlink" width="50px" height="50px" viewBox="0 0 50 51" version="1.1">
<g id="surface1">
<path style=" stroke:none;fill-rule:nonzero;fill:rgb(0%,0%,0%);fill-opacity:1;" d="M 25 0.796875 C 11.191406 0.796875 0 11.851562 0 25.5 C 0 39.148438 11.191406 50.203125 25 50.203125 C 38.808594 50.203125 50 39.148438 50 25.5 C 50 11.851562 38.808594 0.796875 25 0.796875 Z M 25 45.421875 C 13.882812 45.421875 4.839844 36.488281 4.839844 25.5 C 4.839844 14.511719 13.882812 5.578125 25 5.578125 C 36.117188 5.578125 45.160156 14.511719 45.160156 25.5 C 45.160156 36.488281 36.117188 45.421875 25 45.421875 Z M 16.933594 23.90625 C 18.71875 23.90625 20.160156 22.480469 20.160156 20.71875 C 20.160156 18.957031 18.71875 17.53125 16.933594 17.53125 C 15.152344 17.53125 13.710938 18.957031 13.710938 20.71875 C 13.710938 22.480469 15.152344 23.90625 16.933594 23.90625 Z M 33.066406 17.53125 C 31.28125 17.53125 29.839844 18.957031 29.839844 20.71875 C 29.839844 22.480469 31.28125 23.90625 33.066406 23.90625 C 34.847656 23.90625 36.289062 22.480469 36.289062 20.71875 C 36.289062 18.957031 34.847656 17.53125 33.066406 17.53125 Z M 33.871094 31.875 L 16.128906 31.875 C 14.796875 31.875 13.710938 32.949219 13.710938 34.265625 C 13.710938 35.582031 14.796875 36.65625 16.128906 36.65625 L 33.871094 36.65625 C 35.203125 36.65625 36.289062 35.582031 36.289062 34.265625 C 36.289062 32.949219 35.203125 31.875 33.871094 31.875 Z M 33.871094 31.875 "/>
</g>
</svg>
