<?xml version="1.0" encoding="UTF-8"?>
<svg xmlns="http://www.w3.org/2000/svg" xmlns:xlink="http://www.w3.org/1999/xlink" width="50px" height="50px" viewBox="0 0 50 72" version="1.1">
<g id="surface1">
<path style=" stroke:none;fill-rule:nonzero;fill:rgb(0%,0%,0%);fill-opacity:1;" d="M 25 49.5 C 32.53125 49.5 38.636719 43.457031 38.636719 36 L 38.636719 13.5 C 38.636719 6.042969 32.53125 0 25 0 C 17.46875 0 11.363281 6.042969 11.363281 13.5 L 11.363281 36 C 11.363281 43.457031 17.46875 49.5 25 49.5 Z M 47.726562 27 L 45.453125 27 C 44.199219 27 43.183594 28.007812 43.183594 29.25 L 43.183594 36 C 43.183594 46.519531 34.019531 54.960938 23.183594 53.914062 C 13.738281 53 6.816406 44.59375 6.816406 35.199219 L 6.816406 29.25 C 6.816406 28.007812 5.800781 27 4.546875 27 L 2.273438 27 C 1.015625 27 0 28.007812 0 29.25 L 0 34.898438 C 0 47.503906 9.085938 58.742188 21.589844 60.449219 L 21.589844 65.25 L 13.636719 65.25 C 12.378906 65.25 11.363281 66.257812 11.363281 67.5 L 11.363281 69.75 C 11.363281 70.992188 12.378906 72 13.636719 72 L 36.363281 72 C 37.621094 72 38.636719 70.992188 38.636719 69.75 L 38.636719 67.5 C 38.636719 66.257812 37.621094 65.25 36.363281 65.25 L 28.410156 65.25 L 28.410156 60.5 C 40.582031 58.847656 50 48.5 50 36 L 50 29.25 C 50 28.007812 48.984375 27 47.726562 27 Z M 47.726562 27 "/>
</g>
</svg>
