<?xml version="1.0" encoding="UTF-8"?>
<svg xmlns="http://www.w3.org/2000/svg" xmlns:xlink="http://www.w3.org/1999/xlink" width="50px" height="50px" viewBox="0 0 50 57" version="1.1">
<g id="surface1">
<path style=" stroke:none;fill-rule:nonzero;fill:rgb(0%,0%,0%);fill-opacity:1;" d="M 4.828125 51.894531 C -1.695312 45.183594 -1.574219 34.359375 4.980469 27.671875 L 28.390625 3.785156 C 33.339844 -1.261719 41.378906 -1.261719 46.324219 3.785156 C 51.222656 8.78125 51.226562 16.847656 46.324219 21.851562 L 25.917969 42.652344 C 22.585938 46.050781 17.140625 46.003906 13.863281 42.542969 C 10.710938 39.207031 10.8125 33.917969 14.027344 30.636719 L 30.070312 14.289062 C 30.761719 13.585938 31.890625 13.574219 32.59375 14.261719 L 35.148438 16.753906 C 35.851562 17.441406 35.863281 18.570312 35.171875 19.273438 L 19.132812 35.617188 C 18.582031 36.179688 18.546875 37.113281 19.058594 37.652344 C 19.546875 38.167969 20.316406 38.179688 20.8125 37.671875 L 41.21875 16.871094 C 43.40625 14.636719 43.40625 11 41.21875 8.765625 C 39.074219 6.582031 35.640625 6.578125 33.5 8.765625 L 10.089844 32.652344 C 6.207031 36.609375 6.148438 43.019531 9.957031 46.9375 C 13.75 50.84375 19.886719 50.847656 23.6875 46.96875 L 42.890625 27.375 C 43.582031 26.671875 44.710938 26.660156 45.417969 27.347656 L 47.972656 29.835938 C 48.675781 30.523438 48.6875 31.652344 48 32.355469 L 28.796875 51.949219 C 22.148438 58.734375 11.390625 58.652344 4.828125 51.894531 Z M 4.828125 51.894531 "/>
</g>
</svg>
