<?xml version="1.0" encoding="UTF-8"?>
<svg xmlns="http://www.w3.org/2000/svg" xmlns:xlink="http://www.w3.org/1999/xlink" width="50px" height="50px" viewBox="0 0 50 50" version="1.1">
<g id="surface1">
<path style=" stroke:none;fill-rule:nonzero;fill:rgb(0%,0%,0%);fill-opacity:1;" d="M 39.0625 5.28125 C 45.214844 9.679688 49.21875 16.867188 49.21875 25 C 49.21875 38.359375 38.398438 49.1875 25.046875 49.21875 C 11.71875 49.25 0.800781 38.378906 0.78125 25.039062 C 0.773438 16.90625 4.773438 9.695312 10.917969 5.292969 C 12.0625 4.484375 13.652344 4.824219 14.335938 6.046875 L 15.878906 8.789062 C 16.453125 9.8125 16.179688 11.113281 15.234375 11.816406 C 11.179688 14.824219 8.59375 19.589844 8.59375 24.992188 C 8.585938 34.003906 15.867188 41.40625 25 41.40625 C 33.945312 41.40625 41.464844 34.160156 41.40625 24.890625 C 41.375 19.835938 38.992188 14.953125 34.757812 11.804688 C 33.808594 11.101562 33.546875 9.804688 34.121094 8.789062 L 35.664062 6.046875 C 36.347656 4.835938 37.929688 4.472656 39.0625 5.28125 Z M 28.90625 25.78125 L 28.90625 2.34375 C 28.90625 1.046875 27.859375 0 26.5625 0 L 23.4375 0 C 22.140625 0 21.09375 1.046875 21.09375 2.34375 L 21.09375 25.78125 C 21.09375 27.078125 22.140625 28.125 23.4375 28.125 L 26.5625 28.125 C 27.859375 28.125 28.90625 27.078125 28.90625 25.78125 Z M 28.90625 25.78125 "/>
</g>
</svg>
