<?xml version="1.0" encoding="UTF-8"?>
<svg xmlns="http://www.w3.org/2000/svg" xmlns:xlink="http://www.w3.org/1999/xlink" width="50px" height="50px" viewBox="0 0 50 50" version="1.1">
<g id="surface1">
<path style=" stroke:none;fill-rule:nonzero;fill:rgb(0%,0%,0%);fill-opacity:1;" d="M 25 0.78125 C 11.625 0.78125 0.78125 11.628906 0.78125 25 C 0.78125 38.378906 11.625 49.21875 25 49.21875 C 38.375 49.21875 49.21875 38.378906 49.21875 25 C 49.21875 11.628906 38.375 0.78125 25 0.78125 Z M 25 44.53125 C 14.207031 44.53125 5.46875 35.796875 5.46875 25 C 5.46875 14.210938 14.207031 5.46875 25 5.46875 C 35.789062 5.46875 44.53125 14.207031 44.53125 25 C 44.53125 35.792969 35.796875 44.53125 25 44.53125 Z M 35.472656 19.609375 C 35.472656 26.15625 28.402344 26.257812 28.402344 28.679688 L 28.402344 29.296875 C 28.402344 29.945312 27.875 30.46875 27.230469 30.46875 L 22.769531 30.46875 C 22.125 30.46875 21.597656 29.945312 21.597656 29.296875 L 21.597656 28.453125 C 21.597656 24.960938 24.246094 23.566406 26.246094 22.445312 C 27.960938 21.484375 29.011719 20.828125 29.011719 19.554688 C 29.011719 17.871094 26.863281 16.753906 25.125 16.753906 C 22.863281 16.753906 21.816406 17.824219 20.347656 19.679688 C 19.949219 20.179688 19.226562 20.273438 18.71875 19.886719 L 16.003906 17.828125 C 15.503906 17.449219 15.390625 16.746094 15.742188 16.230469 C 18.050781 12.839844 20.992188 10.9375 25.566406 10.9375 C 30.359375 10.9375 35.472656 14.679688 35.472656 19.609375 Z M 29.101562 35.9375 C 29.101562 38.199219 27.261719 40.039062 25 40.039062 C 22.738281 40.039062 20.898438 38.199219 20.898438 35.9375 C 20.898438 33.675781 22.738281 31.835938 25 31.835938 C 27.261719 31.835938 29.101562 33.675781 29.101562 35.9375 Z M 29.101562 35.9375 "/>
</g>
</svg>
