<?xml version="1.0" encoding="UTF-8"?>
<svg xmlns="http://www.w3.org/2000/svg" xmlns:xlink="http://www.w3.org/1999/xlink" width="50px" height="50px" viewBox="0 0 50 50" version="1.1">
<g id="surface1">
<path style=" stroke:none;fill-rule:nonzero;fill:rgb(0%,0%,0%);fill-opacity:1;" d="M 48.859375 0 L 44.230469 0 C 43.910156 0 43.601562 0.128906 43.382812 0.363281 C 43.160156 0.59375 43.042969 0.90625 43.058594 1.226562 L 43.449219 9.308594 C 38.851562 3.894531 32.105469 0.773438 25 0.78125 C 11.65625 0.78125 0.773438 11.671875 0.78125 25.019531 C 0.789062 38.386719 11.632812 49.21875 25 49.21875 C 30.996094 49.226562 36.78125 47.003906 41.226562 42.976562 C 41.46875 42.761719 41.609375 42.457031 41.617188 42.136719 C 41.628906 41.816406 41.503906 41.503906 41.273438 41.273438 L 37.953125 37.953125 C 37.519531 37.519531 36.820312 37.496094 36.355469 37.902344 C 30.984375 42.628906 23.246094 43.53125 16.929688 40.171875 C 10.613281 36.808594 7.039062 29.886719 7.957031 22.789062 C 8.875 15.695312 14.09375 9.910156 21.058594 8.269531 C 28.023438 6.625 35.277344 9.472656 39.265625 15.410156 L 29.351562 14.933594 C 29.03125 14.917969 28.71875 15.035156 28.488281 15.257812 C 28.253906 15.480469 28.125 15.785156 28.125 16.105469 L 28.125 20.734375 C 28.125 21.382812 28.648438 21.90625 29.296875 21.90625 L 48.859375 21.90625 C 49.507812 21.90625 50.03125 21.382812 50.03125 20.734375 L 50.03125 1.171875 C 50.03125 0.523438 49.507812 0 48.859375 0 Z M 48.859375 0 "/>
</g>
</svg>
