<?xml version="1.0" encoding="UTF-8"?>
<svg xmlns="http://www.w3.org/2000/svg" xmlns:xlink="http://www.w3.org/1999/xlink" width="50px" height="50px" viewBox="0 0 50 50" version="1.1">
<g id="surface1">
<path style=" stroke:none;fill-rule:evenodd;fill:rgb(21.568627%,74.509804%,100%);fill-opacity:1;" d="M 50 35.558594 L 25 21.121094 L 25 5.707031 L 50 20.148438 Z M 50 35.558594 "/>
<path style=" stroke:none;fill-rule:evenodd;fill:rgb(25.098039%,30.980392%,32.941176%);fill-opacity:1;" d="M 0 35.558594 L 25 21.121094 L 25 5.707031 L 0 20.148438 Z M 0 35.558594 "/>
<path style=" stroke:none;fill-rule:evenodd;fill:rgb(80%,80%,80%);fill-opacity:1;" d="M 25 0 C 34.550781 0 42.292969 7.746094 42.292969 17.292969 C 42.292969 26.84375 34.550781 34.585938 25 34.585938 C 15.449219 34.585938 7.707031 26.84375 7.707031 17.292969 C 7.707031 7.746094 15.449219 0 25 0 "/>
<path style=" stroke:none;fill-rule:evenodd;fill:rgb(89.803922%,89.803922%,89.803922%);fill-opacity:1;" d="M 25 0 C 34.550781 0 42.300781 7.746094 42.300781 17.292969 C 42.300781 26.84375 34.550781 34.585938 25 34.585938 C 19.515625 30.898438 17.246094 23.460938 17.246094 17.304688 C 17.246094 11.144531 19.515625 3.699219 25 0 "/>
<path style=" stroke:none;fill-rule:evenodd;fill:rgb(21.568627%,74.509804%,100%);fill-opacity:1;" d="M 50 20.148438 L 25 34.585938 L 25 50 L 50 35.558594 Z M 50 20.148438 "/>
<path style=" stroke:none;fill-rule:evenodd;fill:rgb(25.098039%,30.980392%,32.941176%);fill-opacity:1;" d="M 0 20.148438 L 25 34.585938 L 25 50 L 0 35.558594 Z M 0 20.148438 "/>
</g>
</svg>
