<?xml version="1.0" encoding="UTF-8"?>
<svg xmlns="http://www.w3.org/2000/svg" xmlns:xlink="http://www.w3.org/1999/xlink" width="50px" height="50px" viewBox="0 0 50 50" version="1.1">
<g id="surface1">
<path style=" stroke:none;fill-rule:nonzero;fill:rgb(0%,0%,0%);fill-opacity:1;" d="M 49.316406 43.234375 L 39.578125 33.496094 C 39.140625 33.054688 38.546875 32.8125 37.921875 32.8125 L 36.328125 32.8125 C 39.023438 29.367188 40.625 25.03125 40.625 20.3125 C 40.625 9.09375 31.53125 0 20.3125 0 C 9.09375 0 0 9.09375 0 20.3125 C 0 31.53125 9.09375 40.625 20.3125 40.625 C 25.03125 40.625 29.367188 39.023438 32.8125 36.328125 L 32.8125 37.921875 C 32.8125 38.546875 33.054688 39.140625 33.496094 39.578125 L 43.234375 49.316406 C 44.148438 50.234375 45.632812 50.234375 46.542969 49.316406 L 49.304688 46.554688 C 50.222656 45.632812 50.222656 44.148438 49.316406 43.234375 Z M 20.3125 32.8125 C 13.410156 32.8125 7.8125 27.226562 7.8125 20.3125 C 7.8125 13.410156 13.398438 7.8125 20.3125 7.8125 C 27.21875 7.8125 32.8125 13.398438 32.8125 20.3125 C 32.8125 27.21875 27.226562 32.8125 20.3125 32.8125 Z M 20.3125 32.8125 "/>
</g>
</svg>
