<?xml version="1.0" encoding="UTF-8"?>
<svg xmlns="http://www.w3.org/2000/svg" xmlns:xlink="http://www.w3.org/1999/xlink" width="50px" height="50px" viewBox="0 0 50 50" version="1.1">
<g id="surface1">
<path style=" stroke:none;fill-rule:nonzero;fill:rgb(0%,0%,0%);fill-opacity:1;" d="M 48.535156 26.660156 L 32.128906 43.066406 C 30.664062 44.53125 28.125 43.507812 28.125 41.40625 L 28.125 32.03125 L 14.84375 32.03125 C 13.542969 32.03125 12.5 30.984375 12.5 29.6875 L 12.5 20.3125 C 12.5 19.015625 13.542969 17.96875 14.84375 17.96875 L 28.125 17.96875 L 28.125 8.59375 C 28.125 6.503906 30.652344 5.46875 32.128906 6.933594 L 48.535156 23.339844 C 49.445312 24.257812 49.445312 25.742188 48.535156 26.660156 Z M 18.75 42.578125 L 18.75 38.671875 C 18.75 38.027344 18.222656 37.5 17.578125 37.5 L 9.375 37.5 C 7.648438 37.5 6.25 36.101562 6.25 34.375 L 6.25 15.625 C 6.25 13.898438 7.648438 12.5 9.375 12.5 L 17.578125 12.5 C 18.222656 12.5 18.75 11.972656 18.75 11.328125 L 18.75 7.421875 C 18.75 6.777344 18.222656 6.25 17.578125 6.25 L 9.375 6.25 C 4.199219 6.25 0 10.449219 0 15.625 L 0 34.375 C 0 39.550781 4.199219 43.75 9.375 43.75 L 17.578125 43.75 C 18.222656 43.75 18.75 43.222656 18.75 42.578125 Z M 18.75 42.578125 "/>
</g>
</svg>
