<?xml version="1.0" encoding="UTF-8"?>
<svg xmlns="http://www.w3.org/2000/svg" xmlns:xlink="http://www.w3.org/1999/xlink" width="50px" height="50px" viewBox="0 0 50 50" version="1.1">
<g id="surface1">
<path style=" stroke:none;fill-rule:nonzero;fill:rgb(0%,0%,0%);fill-opacity:1;" d="M 40.625 43.75 L 32.421875 43.75 C 31.777344 43.75 31.25 43.222656 31.25 42.578125 L 31.25 38.671875 C 31.25 38.027344 31.777344 37.5 32.421875 37.5 L 40.625 37.5 C 42.351562 37.5 43.75 36.101562 43.75 34.375 L 43.75 15.625 C 43.75 13.898438 42.351562 12.5 40.625 12.5 L 32.421875 12.5 C 31.777344 12.5 31.25 11.972656 31.25 11.328125 L 31.25 7.421875 C 31.25 6.777344 31.777344 6.25 32.421875 6.25 L 40.625 6.25 C 45.800781 6.25 50 10.449219 50 15.625 L 50 34.375 C 50 39.550781 45.800781 43.75 40.625 43.75 Z M 36.035156 24.121094 L 19.628906 7.714844 C 18.164062 6.25 15.625 7.273438 15.625 9.375 L 15.625 18.75 L 2.34375 18.75 C 1.046875 18.75 0 19.796875 0 21.09375 L 0 30.46875 C 0 31.765625 1.046875 32.8125 2.34375 32.8125 L 15.625 32.8125 L 15.625 42.1875 C 15.625 44.289062 18.164062 45.3125 19.628906 43.847656 L 36.035156 27.441406 C 36.945312 26.523438 36.945312 25.039062 36.035156 24.121094 Z M 36.035156 24.121094 "/>
</g>
</svg>
