<?xml version="1.0" encoding="UTF-8"?>
<svg xmlns="http://www.w3.org/2000/svg" xmlns:xlink="http://www.w3.org/1999/xlink" width="50px" height="50px" viewBox="0 0 50 72" version="1.1">
<g id="surface1">
<path style=" stroke:none;fill-rule:nonzero;fill:rgb(0%,0%,0%);fill-opacity:1;" d="M 34.476562 36 L 48.691406 21.925781 C 50.4375 20.199219 50.4375 17.402344 48.691406 15.671875 L 45.53125 12.546875 C 43.789062 10.816406 40.960938 10.816406 39.214844 12.546875 L 25 26.617188 L 10.785156 12.546875 C 9.042969 10.816406 6.214844 10.816406 4.46875 12.546875 L 1.308594 15.671875 C -0.4375 17.398438 -0.4375 20.199219 1.308594 21.925781 L 15.523438 36 L 1.308594 50.074219 C -0.4375 51.800781 -0.4375 54.597656 1.308594 56.328125 L 4.46875 59.453125 C 6.210938 61.183594 9.042969 61.183594 10.785156 59.453125 L 25 45.382812 L 39.214844 59.453125 C 40.957031 61.183594 43.789062 61.183594 45.53125 59.453125 L 48.691406 56.328125 C 50.4375 54.601562 50.4375 51.800781 48.691406 50.074219 Z M 34.476562 36 "/>
</g>
</svg>
