<?xml version="1.0" encoding="UTF-8"?>
<svg xmlns="http://www.w3.org/2000/svg" xmlns:xlink="http://www.w3.org/1999/xlink" width="50px" height="50px" viewBox="0 0 50 50" version="1.1">
<g id="surface1">
<path style=" stroke:none;fill-rule:nonzero;fill:rgb(0%,0%,0%);fill-opacity:1;" d="M 46.867188 37.460938 L 36.421875 27.015625 C 34.363281 24.953125 31.285156 24.550781 28.804688 25.773438 L 19.292969 16.265625 L 19.292969 10.722656 L 7.875 2.160156 L 2.164062 7.871094 L 10.730469 19.289062 L 16.269531 19.289062 L 25.78125 28.796875 C 24.566406 31.277344 24.957031 34.355469 27.019531 36.417969 L 37.464844 46.863281 C 38.769531 48.164062 40.875 48.164062 42.167969 46.863281 L 46.867188 42.160156 C 48.164062 40.859375 48.164062 38.753906 46.867188 37.460938 Z M 31.757812 22.234375 C 34.28125 22.234375 36.652344 23.214844 38.4375 24.996094 L 40.167969 26.730469 C 41.578125 26.113281 42.917969 25.257812 44.078125 24.097656 C 47.386719 20.789062 48.511719 16.128906 47.457031 11.902344 C 47.261719 11.097656 46.253906 10.824219 45.664062 11.410156 L 39.027344 18.046875 L 32.96875 17.039062 L 31.960938 10.984375 L 38.597656 4.347656 C 39.1875 3.757812 38.902344 2.75 38.089844 2.542969 C 33.863281 1.5 29.207031 2.625 25.90625 5.925781 C 23.363281 8.46875 22.167969 11.820312 22.230469 15.167969 L 29.554688 22.492188 C 30.277344 22.320312 31.023438 22.234375 31.757812 22.234375 Z M 22.488281 29.546875 L 17.429688 24.488281 L 3.832031 38.09375 C 1.605469 40.324219 1.605469 43.9375 3.832031 46.167969 C 6.0625 48.398438 9.675781 48.398438 11.90625 46.167969 L 22.933594 35.140625 C 22.253906 33.367188 22.050781 31.429688 22.488281 29.546875 Z M 7.875 44.265625 C 6.699219 44.265625 5.734375 43.304688 5.734375 42.125 C 5.734375 40.941406 6.6875 39.984375 7.875 39.984375 C 9.0625 39.984375 10.015625 40.941406 10.015625 42.125 C 10.015625 43.304688 9.0625 44.265625 7.875 44.265625 Z M 7.875 44.265625 "/>
</g>
</svg>
