<svg xmlns="http://www.w3.org/2000/svg" xmlns:xlink="http://www.w3.org/1999/xlink" version="1.1" width="1000" height="1000" viewBox="0 0 1000 1000" xml:space="preserve">
<desc>Created with Fabric.js 3.5.0</desc>
<defs>
</defs>
<rect x="0" y="0" width="100%" height="100%" fill="rgba(255,255,255,0)"/>
<g transform="matrix(43.1548 0 0 43.1548 500.0005 500.0005)" id="649986">
<g style="" vector-effect="non-scaling-stroke">
		<g transform="matrix(1 0 0 1 0 0)">
<path style="stroke: none; stroke-width: 1; stroke-dasharray: none; stroke-linecap: butt; stroke-dashoffset: 0; stroke-linejoin: miter; stroke-miterlimit: 4; is-custom-font: none; font-file-url: none; fill: none; fill-rule: nonzero; opacity: 1;" transform=" translate(-12, -12)" d="M 0 0 h 24 v 24 H 0 z" stroke-linecap="round"/>
</g>
		<g transform="matrix(1 0 0 1 0 -0.295)">
<path style="stroke: none; stroke-width: 1; stroke-dasharray: none; stroke-linecap: butt; stroke-dashoffset: 0; stroke-linejoin: miter; stroke-miterlimit: 4; is-custom-font: none; font-file-url: none; fill: rgb(0,0,0); fill-rule: nonzero; opacity: 1;" transform=" translate(-12, -11.705)" d="M 12 5 c -3.87 0 -7 3.13 -7 7 h 2 c 0 -2.76 2.24 -5 5 -5 s 5 2.24 5 5 h 2 c 0 -3.87 -3.13 -7 -7 -7 z m 1 9.29 c 0.88 -0.39 1.5 -1.26 1.5 -2.29 c 0 -1.38 -1.12 -2.5 -2.5 -2.5 S 9.5 10.62 9.5 12 c 0 1.02 0.62 1.9 1.5 2.29 v 3.3 L 7.59 21 L 9 22.41 l 3 -3 l 3 3 L 16.41 21 L 13 17.59 v -3.3 z M 12 1 C 5.93 1 1 5.93 1 12 h 2 c 0 -4.97 4.03 -9 9 -9 s 9 4.03 9 9 h 2 c 0 -6.07 -4.93 -11 -11 -11 z" stroke-linecap="round"/>
</g>
</g>
</g>
</svg>