<?xml version="1.0" encoding="UTF-8"?>
<svg xmlns="http://www.w3.org/2000/svg" xmlns:xlink="http://www.w3.org/1999/xlink" width="50px" height="50px" viewBox="0 0 50 50" version="1.1">
<g id="surface1">
<path style=" stroke:none;fill-rule:nonzero;fill:rgb(0%,0%,0%);fill-opacity:1;" d="M 25 9.894531 C 16.648438 9.894531 9.894531 16.648438 9.894531 25 L 14.210938 25 C 14.210938 19.042969 19.042969 14.210938 25 14.210938 C 30.957031 14.210938 35.789062 19.042969 35.789062 25 L 40.105469 25 C 40.105469 16.648438 33.351562 9.894531 25 9.894531 Z M 27.15625 29.941406 C 29.054688 29.101562 30.394531 27.222656 30.394531 25 C 30.394531 22.023438 27.976562 19.605469 25 19.605469 C 22.023438 19.605469 19.605469 22.023438 19.605469 25 C 19.605469 27.199219 20.945312 29.101562 22.84375 29.941406 L 22.84375 37.0625 L 15.484375 44.417969 L 18.527344 47.460938 L 25 40.988281 L 31.472656 47.460938 L 34.515625 44.417969 L 27.15625 37.0625 Z M 25 1.265625 C 11.902344 1.265625 1.265625 11.902344 1.265625 25 L 5.582031 25 C 5.582031 14.277344 14.277344 5.582031 25 5.582031 C 35.722656 5.582031 44.417969 14.277344 44.417969 25 L 48.734375 25 C 48.734375 11.902344 38.097656 1.265625 25 1.265625 Z M 25 1.265625 "/>
</g>
</svg>
