<?xml version="1.0" encoding="UTF-8"?>
<svg xmlns="http://www.w3.org/2000/svg" xmlns:xlink="http://www.w3.org/1999/xlink" width="50px" height="50px" viewBox="0 0 50 57" version="1.1">
<g id="surface1">
<path style=" stroke:none;fill-rule:nonzero;fill:rgb(0%,0%,0%);fill-opacity:1;" d="M 3.570312 51.65625 C 3.570312 54.609375 5.96875 57 8.929688 57 L 41.070312 57 C 44.03125 57 46.429688 54.609375 46.429688 51.65625 L 46.429688 14.25 L 3.570312 14.25 Z M 33.929688 23.15625 C 33.929688 22.171875 34.726562 21.375 35.714844 21.375 C 36.699219 21.375 37.5 22.171875 37.5 23.15625 L 37.5 48.09375 C 37.5 49.078125 36.699219 49.875 35.714844 49.875 C 34.726562 49.875 33.929688 49.078125 33.929688 48.09375 Z M 23.214844 23.15625 C 23.214844 22.171875 24.015625 21.375 25 21.375 C 25.984375 21.375 26.785156 22.171875 26.785156 23.15625 L 26.785156 48.09375 C 26.785156 49.078125 25.984375 49.875 25 49.875 C 24.015625 49.875 23.214844 49.078125 23.214844 48.09375 Z M 12.5 23.15625 C 12.5 22.171875 13.300781 21.375 14.285156 21.375 C 15.273438 21.375 16.070312 22.171875 16.070312 23.15625 L 16.070312 48.09375 C 16.070312 49.078125 15.273438 49.875 14.285156 49.875 C 13.300781 49.875 12.5 49.078125 12.5 48.09375 Z M 48.214844 3.5625 L 34.820312 3.5625 L 33.773438 1.480469 C 33.320312 0.574219 32.390625 0 31.371094 0 L 18.617188 0 C 17.601562 -0.00390625 16.671875 0.570312 16.226562 1.480469 L 15.179688 3.5625 L 1.785156 3.5625 C 0.800781 3.5625 0 4.359375 0 5.34375 L 0 8.90625 C 0 9.890625 0.800781 10.6875 1.785156 10.6875 L 48.214844 10.6875 C 49.199219 10.6875 50 9.890625 50 8.90625 L 50 5.34375 C 50 4.359375 49.199219 3.5625 48.214844 3.5625 Z M 48.214844 3.5625 "/>
</g>
</svg>
