<?xml version="1.0" encoding="UTF-8"?>
<svg xmlns="http://www.w3.org/2000/svg" xmlns:xlink="http://www.w3.org/1999/xlink" width="50px" height="50px" viewBox="0 0 50 50" version="1.1">
<g id="surface1">
<path style=" stroke:none;fill-rule:nonzero;fill:rgb(0%,0%,0%);fill-opacity:1;" d="M 24.957031 0.78125 C 18.484375 0.792969 12.609375 3.34375 8.269531 7.488281 L 4.78125 4 C 3.304688 2.523438 0.78125 3.570312 0.78125 5.660156 L 0.78125 18.75 C 0.78125 20.042969 1.832031 21.09375 3.125 21.09375 L 16.214844 21.09375 C 18.304688 21.09375 19.351562 18.570312 17.875 17.09375 L 13.796875 13.015625 C 16.8125 10.195312 20.710938 8.628906 24.855469 8.59375 C 33.878906 8.515625 41.484375 15.820312 41.40625 25.140625 C 41.332031 33.984375 34.160156 41.40625 25 41.40625 C 20.984375 41.40625 17.1875 39.972656 14.195312 37.347656 C 13.734375 36.941406 13.035156 36.964844 12.597656 37.402344 L 8.726562 41.273438 C 8.25 41.75 8.273438 42.527344 8.773438 42.976562 C 13.066406 46.855469 18.757812 49.21875 25 49.21875 C 38.375 49.21875 49.21875 38.375 49.21875 25 C 49.21875 11.640625 38.316406 0.757812 24.957031 0.78125 Z M 24.957031 0.78125 "/>
</g>
</svg>
