<?xml version="1.0" encoding="UTF-8"?>
<svg xmlns="http://www.w3.org/2000/svg" xmlns:xlink="http://www.w3.org/1999/xlink" width="50px" height="50px" viewBox="0 0 50 57" version="1.1">
<g id="surface1">
<path style=" stroke:none;fill-rule:nonzero;fill:rgb(0%,0%,0%);fill-opacity:1;" d="M 44.644531 28.5 L 16.964844 28.5 L 16.964844 17.023438 C 16.964844 12.613281 20.503906 8.949219 24.921875 8.90625 C 29.386719 8.863281 33.035156 12.480469 33.035156 16.921875 L 33.035156 18.703125 C 33.035156 20.183594 34.230469 21.375 35.714844 21.375 L 39.285156 21.375 C 40.769531 21.375 41.964844 20.183594 41.964844 18.703125 L 41.964844 16.921875 C 41.964844 7.570312 34.320312 -0.0351562 24.945312 0 C 15.570312 0.0351562 8.035156 7.738281 8.035156 17.089844 L 8.035156 28.5 L 5.355469 28.5 C 2.398438 28.5 0 30.894531 0 33.84375 L 0 51.65625 C 0 54.605469 2.398438 57 5.355469 57 L 44.644531 57 C 47.601562 57 50 54.605469 50 51.65625 L 50 33.84375 C 50 30.894531 47.601562 28.5 44.644531 28.5 Z M 29.464844 45.421875 C 29.464844 47.882812 27.464844 49.875 25 49.875 C 22.535156 49.875 20.535156 47.882812 20.535156 45.421875 L 20.535156 40.078125 C 20.535156 37.617188 22.535156 35.625 25 35.625 C 27.464844 35.625 29.464844 37.617188 29.464844 40.078125 Z M 29.464844 45.421875 "/>
</g>
</svg>
