<svg xmlns="http://www.w3.org/2000/svg" xmlns:xlink="http://www.w3.org/1999/xlink" version="1.1" width="1000" height="1000" viewBox="0 0 1000 1000" xml:space="preserve">
<desc>Created with Fabric.js 3.5.0</desc>
<defs>
</defs>
<rect x="0" y="0" width="100%" height="100%" fill="rgba(255,255,255,0)"/>
<g transform="matrix(0.874 0 0 1 516.0885 500)" id="433126">
<g style="" vector-effect="non-scaling-stroke">
		<g transform="matrix(1 0 0 1 -450 -450)">
<rect style="stroke: none; stroke-width: 1; stroke-dasharray: none; stroke-linecap: butt; stroke-dashoffset: 0; stroke-linejoin: miter; stroke-miterlimit: 4; is-custom-font: none; font-file-url: none; fill: rgb(255,255,255); fill-opacity: 0; fill-rule: nonzero; opacity: 1;" x="-50" y="-50" rx="0" ry="0" width="100" height="100"/>
</g>
		<g transform="matrix(2.3692 0 0 1.7773 0.0049 -0.0112)" id="927613">
<path style="stroke: none; stroke-width: 1; stroke-dasharray: none; stroke-linecap: butt; stroke-dashoffset: 0; stroke-linejoin: miter; stroke-miterlimit: 4; is-custom-font: none; font-file-url: none; fill: rgb(0,0,0); fill-rule: nonzero; opacity: 1;" vector-effect="non-scaling-stroke" transform=" translate(-192.05, -256)" d="M 112 24 c 0 -13.3 -10.7 -24 -24 -24 S 64 10.7 64 24 V 96 H 48 C 21.5 96 0 117.5 0 144 V 300.1 c 0 12.7 5.1 24.9 14.1 33.9 l 3.9 3.9 c 9 9 14.1 21.2 14.1 33.9 V 464 c 0 26.5 21.5 48 48 48 H 304 c 26.5 0 48 -21.5 48 -48 V 371.9 c 0 -12.7 5.1 -24.9 14.1 -33.9 l 3.9 -3.9 c 9 -9 14.1 -21.2 14.1 -33.9 V 144 c 0 -26.5 -21.5 -48 -48 -48 H 320 c 0 -17.7 -14.3 -32 -32 -32 s -32 14.3 -32 32 H 224 c 0 -17.7 -14.3 -32 -32 -32 s -32 14.3 -32 32 H 112 V 24 z m 0 136 H 272 c 8.8 0 16 7.2 16 16 s -7.2 16 -16 16 H 112 c -8.8 0 -16 -7.2 -16 -16 s 7.2 -16 16 -16 z m 0 64 H 272 c 8.8 0 16 7.2 16 16 s -7.2 16 -16 16 H 112 c -8.8 0 -16 -7.2 -16 -16 s 7.2 -16 16 -16 z m 0 64 H 272 c 8.8 0 16 7.2 16 16 s -7.2 16 -16 16 H 112 c -8.8 0 -16 -7.2 -16 -16 s 7.2 -16 16 -16 z" stroke-linecap="round"/>
</g>
</g>
</g>
</svg>