<?xml version="1.0" encoding="UTF-8"?>
<svg xmlns="http://www.w3.org/2000/svg" xmlns:xlink="http://www.w3.org/1999/xlink" width="50px" height="50px" viewBox="0 0 50 50" version="1.1">
<g id="surface1">
<path style=" stroke:none;fill-rule:nonzero;fill:rgb(0%,0%,0%);fill-opacity:1;" d="M 17.515625 4.382812 C 17.515625 3.199219 16.410156 2.25 15.03125 2.25 C 13.65625 2.25 12.546875 3.199219 12.546875 4.382812 L 12.546875 10.78125 L 10.890625 10.78125 C 8.148438 10.78125 5.921875 12.691406 5.921875 15.046875 L 5.921875 28.917969 C 5.921875 30.046875 6.449219 31.132812 7.378906 31.929688 L 7.785156 32.277344 C 8.714844 33.078125 9.246094 34.160156 9.246094 35.289062 L 9.246094 43.484375 C 9.246094 45.839844 11.46875 47.75 14.214844 47.75 L 37.394531 47.75 C 40.140625 47.75 42.363281 45.839844 42.363281 43.484375 L 42.363281 35.300781 C 42.363281 34.171875 42.894531 33.085938 43.824219 32.285156 L 44.230469 31.941406 C 45.160156 31.140625 45.6875 30.054688 45.6875 28.925781 L 45.6875 15.046875 C 45.6875 12.691406 43.460938 10.78125 40.71875 10.78125 L 39.050781 10.78125 C 39.050781 9.207031 37.570312 7.9375 35.738281 7.9375 C 33.90625 7.9375 32.425781 9.207031 32.425781 10.78125 L 29.113281 10.78125 C 29.113281 9.207031 27.632812 7.9375 25.800781 7.9375 C 23.96875 7.9375 22.488281 9.207031 22.488281 10.78125 L 17.515625 10.78125 Z M 17.515625 16.46875 L 34.082031 16.46875 C 34.992188 16.46875 35.738281 17.109375 35.738281 17.890625 C 35.738281 18.671875 34.992188 19.3125 34.082031 19.3125 L 17.515625 19.3125 C 16.605469 19.3125 15.859375 18.671875 15.859375 17.890625 C 15.859375 17.109375 16.605469 16.46875 17.515625 16.46875 Z M 17.515625 22.15625 L 34.082031 22.15625 C 34.992188 22.15625 35.738281 22.796875 35.738281 23.578125 C 35.738281 24.359375 34.992188 25 34.082031 25 L 17.515625 25 C 16.605469 25 15.859375 24.359375 15.859375 23.578125 C 15.859375 22.796875 16.605469 22.15625 17.515625 22.15625 Z M 17.515625 27.84375 L 34.082031 27.84375 C 34.992188 27.84375 35.738281 28.484375 35.738281 29.265625 C 35.738281 30.046875 34.992188 30.6875 34.082031 30.6875 L 17.515625 30.6875 C 16.605469 30.6875 15.859375 30.046875 15.859375 29.265625 C 15.859375 28.484375 16.605469 27.84375 17.515625 27.84375 Z M 17.515625 27.84375 "/>
</g>
</svg>
