<?xml version="1.0" encoding="UTF-8"?>
<svg xmlns="http://www.w3.org/2000/svg" xmlns:xlink="http://www.w3.org/1999/xlink" width="50px" height="50px" viewBox="0 0 50 50" version="1.1">
<g id="surface1">
<path style=" stroke:none;fill-rule:nonzero;fill:rgb(0%,0%,0%);fill-opacity:1;" d="M 24.828125 33.328125 C 22.082031 33.328125 19.855469 35.824219 19.855469 38.90625 C 19.855469 41.988281 22.082031 44.484375 24.828125 44.484375 C 27.578125 44.484375 29.804688 41.988281 29.804688 38.90625 C 29.804688 35.824219 27.644531 33.328125 24.828125 33.328125 Z M 24.898438 19.382812 C 19.4375 19.382812 14.179688 21.613281 10.089844 25.660156 C 9.066406 26.753906 8.964844 28.515625 9.875 29.675781 C 10.789062 30.824219 12.359375 30.9375 13.386719 29.917969 C 16.566406 26.773438 20.65625 25.039062 24.898438 25.039062 C 29.144531 25.039062 33.242188 26.769531 36.414062 29.917969 C 36.886719 30.390625 37.476562 30.617188 38.058594 30.617188 C 38.746094 30.617188 39.433594 30.296875 39.925781 29.675781 C 40.835938 28.515625 40.742188 26.753906 39.707031 25.734375 C 35.621094 21.691406 30.363281 19.382812 24.898438 19.382812 Z M 49.011719 16.382812 C 42.492188 9.375 33.933594 5.515625 24.898438 5.515625 C 15.867188 5.515625 7.308594 9.375 0.789062 16.382812 C -0.203125 17.453125 -0.234375 19.214844 0.71875 20.328125 C 1.667969 21.441406 3.242188 21.472656 4.234375 20.410156 C 9.75 14.328125 17.15625 11.09375 24.898438 11.09375 C 32.640625 11.09375 39.910156 14.402344 45.5625 20.410156 C 46.050781 20.925781 46.664062 21.1875 47.289062 21.1875 C 47.941406 21.1875 48.59375 20.902344 49.082031 20.328125 C 50.03125 19.214844 50 17.378906 49.011719 16.382812 Z M 49.011719 16.382812 "/>
</g>
</svg>
