<?xml version="1.0" encoding="UTF-8"?>
<svg xmlns="http://www.w3.org/2000/svg" xmlns:xlink="http://www.w3.org/1999/xlink" width="50px" height="50px" viewBox="0 0 50 50" version="1.1">
<g id="surface1">
<path style=" stroke:none;fill-rule:nonzero;fill:rgb(0%,0%,0%);fill-opacity:1;" d="M 49.582031 10.65625 C 49.363281 9.773438 48.261719 9.472656 47.617188 10.117188 L 40.355469 17.378906 L 33.726562 16.273438 L 32.621094 9.644531 L 39.882812 2.382812 C 40.53125 1.734375 40.21875 0.632812 39.332031 0.414062 C 34.703125 -0.734375 29.609375 0.503906 25.992188 4.117188 C 22.121094 7.988281 21.058594 13.601562 22.667969 18.492188 L 1.828125 39.332031 C -0.609375 41.773438 -0.609375 45.730469 1.828125 48.171875 C 4.269531 50.609375 8.226562 50.609375 10.667969 48.171875 L 31.488281 27.347656 C 36.382812 28.980469 41.984375 27.902344 45.882812 24.007812 C 49.5 20.386719 50.734375 15.285156 49.582031 10.65625 Z M 6.25 46.09375 C 4.957031 46.09375 3.90625 45.042969 3.90625 43.75 C 3.90625 42.453125 4.957031 41.40625 6.25 41.40625 C 7.542969 41.40625 8.59375 42.453125 8.59375 43.75 C 8.59375 45.042969 7.542969 46.09375 6.25 46.09375 Z M 6.25 46.09375 "/>
</g>
</svg>
