<?xml version="1.0" encoding="UTF-8"?>
<svg xmlns="http://www.w3.org/2000/svg" xmlns:xlink="http://www.w3.org/1999/xlink" width="44px" height="50px" viewBox="0 0 44 50" version="1.1">
<g id="surface1">
<path style=" stroke:none;fill-rule:nonzero;fill:rgb(0%,0%,0%);fill-opacity:1;" d="M 12.789062 13.191406 C 12.179688 13.183594 11.566406 13.414062 11.097656 13.882812 L 8.917969 16.050781 C 7.996094 16.96875 7.996094 18.453125 8.917969 19.359375 L 15.96875 26.375 L 8.917969 33.386719 C 7.996094 34.292969 7.996094 35.777344 8.917969 36.695312 L 11.097656 38.863281 C 12.03125 39.800781 13.554688 39.78125 14.46875 38.824219 L 21.308594 31.6875 L 28.148438 38.824219 C 29.0625 39.78125 30.582031 39.800781 31.515625 38.863281 L 33.695312 36.695312 C 34.621094 35.777344 34.621094 34.292969 33.695312 33.386719 L 26.648438 26.375 L 33.695312 19.359375 C 34.621094 18.453125 34.621094 16.96875 33.695312 16.050781 L 31.515625 13.882812 C 30.582031 12.945312 29.0625 12.964844 28.148438 13.921875 L 21.308594 21.0625 L 14.46875 13.921875 C 14.011719 13.441406 13.402344 13.199219 12.789062 13.191406 Z M 12.789062 13.191406 "/>
</g>
</svg>
