<?xml version="1.0" encoding="UTF-8" standalone="no"?>
<svg
   xmlns:dc="http://purl.org/dc/elements/1.1/"
   xmlns:cc="http://creativecommons.org/ns#"
   xmlns:rdf="http://www.w3.org/1999/02/22-rdf-syntax-ns#"
   xmlns:svg="http://www.w3.org/2000/svg"
   xmlns="http://www.w3.org/2000/svg"
   xmlns:sodipodi="http://sodipodi.sourceforge.net/DTD/sodipodi-0.dtd"
   xmlns:inkscape="http://www.inkscape.org/namespaces/inkscape"
   viewBox="0 0 448 512"
   version="1.1"
   id="svg4737"
   sodipodi:docname="x.svg"
   inkscape:version="0.92.2 5c3e80d, 2017-08-06">
  <metadata
     id="metadata4743">
    <rdf:RDF>
      <cc:Work
         rdf:about="">
        <dc:format>image/svg+xml</dc:format>
        <dc:type
           rdf:resource="http://purl.org/dc/dcmitype/StillImage" />
        <dc:title></dc:title>
      </cc:Work>
    </rdf:RDF>
  </metadata>
  <defs
     id="defs4741" />
  <sodipodi:namedview
     pagecolor="#ffffff"
     bordercolor="#666666"
     borderopacity="1"
     objecttolerance="10"
     gridtolerance="10"
     guidetolerance="10"
     inkscape:pageopacity="0"
     inkscape:pageshadow="2"
     inkscape:window-width="1282"
     inkscape:window-height="726"
     id="namedview4739"
     showgrid="false"
     inkscape:zoom="0.4609375"
     inkscape:cx="224"
     inkscape:cy="287.56058"
     inkscape:window-x="0"
     inkscape:window-y="0"
     inkscape:window-maximized="0"
     inkscape:current-layer="svg4737" />
  <!-- Font Awesome Free 5.15.1 by @fontawesome - https://fontawesome.com License - https://fontawesome.com/license/free (Icons: CC BY 4.0, Fonts: SIL OFL 1.1, Code: MIT License) -->
  <path
     d="m 130.22669,135.082 c -6.2247,-0.0751 -12.4746,2.27422 -17.2246,7.07422 l -22.201176,22.19922 c -9.4,9.4 -9.400001,24.60039 0,33.90039 l 71.773436,71.80859 -71.773436,71.81055 c -9.400001,9.3 -9.400001,24.50039 0,33.90039 l 22.201176,22.19922 c 9.5,9.6 24.99882,9.39961 34.29882,-0.40039 l 69.64845,-73.10547 69.64843,73.10547 c 9.3,9.8 24.79883,10.00039 34.29883,0.40039 l 22.20117,-22.19922 c 9.4,-9.4 9.4,-24.60039 0,-33.90039 l -71.77343,-71.81055 71.77343,-71.80859 c 9.4,-9.3 9.4,-24.50039 0,-33.90039 l -22.20117,-22.19922 c -9.5,-9.6 -24.99883,-9.39961 -34.29883,0.40039 l -69.64843,73.10547 -69.64845,-73.10547 c -4.65,-4.9 -10.84951,-7.39951 -17.07422,-7.47461 z"
     id="path4735"
     inkscape:connector-curvature="0" />
</svg>
