<svg xmlns="http://www.w3.org/2000/svg" xmlns:xlink="http://www.w3.org/1999/xlink" version="1.1" width="1000" height="1000" viewBox="0 0 1000 1000" xml:space="preserve">
<desc>Created with Fabric.js 3.5.0</desc>
<defs>
</defs>
<rect x="0" y="0" width="100%" height="100%" fill="rgba(255,255,255,0)"/>
<g transform="matrix(1.5591 0 0 1.7257 499.412 499.9938)" id="566727">
<path style="stroke: none; stroke-width: 1; stroke-dasharray: none; stroke-linecap: butt; stroke-dashoffset: 0; stroke-linejoin: miter; stroke-miterlimit: 4; is-custom-font: none; font-file-url: none; fill: rgb(0,0,0); fill-rule: nonzero; opacity: 1;" vector-effect="non-scaling-stroke" transform=" translate(-320, -255.9984)" d="M 150.94 192 h 33.73 c 11.01 0 18.61 -10.83 14.86 -21.18 c -4.93 -13.58 -7.55 -27.98 -7.55 -42.82 s 2.62 -29.24 7.55 -42.82 C 203.29 74.83 195.68 64 184.67 64 h -33.73 c -7.01 0 -13.46 4.49 -15.41 11.23 C 130.64 92.21 128 109.88 128 128 c 0 18.12 2.64 35.79 7.54 52.76 c 1.94 6.74 8.39 11.24 15.4 11.24 z M 89.92 23.34 C 95.56 12.72 87.97 0 75.96 0 H 40.63 c -6.27 0 -12.14 3.59 -14.74 9.31 C 9.4 45.54 0 85.65 0 128 c 0 24.75 3.12 68.33 26.69 118.86 c 2.62 5.63 8.42 9.14 14.61 9.14 h 34.84 c 12.02 0 19.61 -12.74 13.95 -23.37 c -49.78 -93.32 -16.71 -178.15 -0.17 -209.29 z M 614.06 9.29 C 611.46 3.58 605.6 0 599.33 0 h -35.42 c -11.98 0 -19.66 12.66 -14.02 23.25 c 18.27 34.29 48.42 119.42 0.28 209.23 c -5.72 10.68 1.8 23.52 13.91 23.52 h 35.23 c 6.27 0 12.13 -3.58 14.73 -9.29 C 630.57 210.48 640 170.36 640 128 s -9.42 -82.48 -25.94 -118.71 z M 489.06 64 h -33.73 c -11.01 0 -18.61 10.83 -14.86 21.18 c 4.93 13.58 7.55 27.98 7.55 42.82 s -2.62 29.24 -7.55 42.82 c -3.76 10.35 3.85 21.18 14.86 21.18 h 33.73 c 7.02 0 13.46 -4.49 15.41 -11.24 c 4.9 -16.97 7.53 -34.64 7.53 -52.76 c 0 -18.12 -2.64 -35.79 -7.54 -52.76 c -1.94 -6.75 -8.39 -11.24 -15.4 -11.24 z m -116.3 100.12 c 7.05 -10.29 11.2 -22.71 11.2 -36.12 c 0 -35.35 -28.63 -64 -63.96 -64 c -35.32 0 -63.96 28.65 -63.96 64 c 0 13.41 4.15 25.83 11.2 36.12 l -130.5 313.41 c -3.4 8.15 0.46 17.52 8.61 20.92 l 29.51 12.31 c 8.15 3.4 17.52 -0.46 20.91 -8.61 L 244.96 384 h 150.07 l 49.2 118.15 c 3.4 8.16 12.76 12.01 20.91 8.61 l 29.51 -12.31 c 8.15 -3.4 12 -12.77 8.61 -20.92 l -130.5 -313.41 z M 271.62 320 L 320 203.81 L 368.38 320 h -96.76 z" stroke-linecap="round"/>
</g>
</svg>