<svg xmlns="http://www.w3.org/2000/svg" xmlns:xlink="http://www.w3.org/1999/xlink" version="1.1" width="1000" height="1000" viewBox="0 0 1000 1000" xml:space="preserve">
<desc>Created with Fabric.js 3.5.0</desc>
<defs>
</defs>
<rect x="0" y="0" width="100%" height="100%" fill="rgba(255,255,255,0)"/>
<g transform="matrix(0.9979 0 0 0.8628 498.95 500.0036)" id="156463">
<g style="" vector-effect="non-scaling-stroke">
		<g transform="matrix(1 0 0 1 -450 -450)">
<rect style="stroke: none; stroke-width: 1; stroke-dasharray: none; stroke-linecap: butt; stroke-dashoffset: 0; stroke-linejoin: miter; stroke-miterlimit: 4; is-custom-font: none; font-file-url: none; fill: rgb(255,255,255); fill-opacity: 0; fill-rule: nonzero; opacity: 1;" x="-50" y="-50" rx="0" ry="0" width="100" height="100"/>
</g>
		<g transform="matrix(1.5446 0 0 1.9327 -5.211 -4.7288)" id="626552">
<path style="stroke: none; stroke-width: 1; stroke-dasharray: none; stroke-linecap: butt; stroke-dashoffset: 0; stroke-linejoin: miter; stroke-miterlimit: 4; is-custom-font: none; font-file-url: none; fill: rgb(0,0,0); fill-rule: nonzero; opacity: 1;" vector-effect="non-scaling-stroke" transform=" translate(-319.989, -256)" d="M 88.2 309.1 c 9.8 -18.3 6.8 -40.8 -7.5 -55.8 C 59.4 230.9 48 204 48 176 c 0 -63.5 63.8 -128 160 -128 s 160 64.5 160 128 s -63.8 128 -160 128 c -13.1 0 -25.8 -1.3 -37.8 -3.6 c -10.4 -2 -21.2 -0.6 -30.7 4.2 c -4.1 2.1 -8.3 4.1 -12.6 6 c -16 7.2 -32.9 13.5 -49.9 18 c 2.8 -4.6 5.4 -9.1 7.9 -13.6 c 1.1 -1.9 2.2 -3.9 3.2 -5.9 z M 0 176 c 0 41.8 17.2 80.1 45.9 110.3 c -0.9 1.7 -1.9 3.5 -2.8 5.1 c -10.3 18.4 -22.3 36.5 -36.6 52.1 c -6.6 7 -8.3 17.2 -4.6 25.9 C 5.8 378.3 14.4 384 24 384 c 43 0 86.5 -13.3 122.7 -29.7 c 4.8 -2.2 9.6 -4.5 14.2 -6.8 c 15.1 3 30.9 4.5 47.1 4.5 c 114.9 0 208 -78.8 208 -176 S 322.9 0 208 0 S 0 78.8 0 176 z M 432 480 c 16.2 0 31.9 -1.6 47.1 -4.5 c 4.6 2.3 9.4 4.6 14.2 6.8 C 529.5 498.7 573 512 616 512 c 9.6 0 18.2 -5.7 22 -14.5 c 3.8 -8.8 2 -19 -4.6 -25.9 c -14.2 -15.6 -26.2 -33.7 -36.6 -52.1 c -0.9 -1.7 -1.9 -3.4 -2.8 -5.1 C 622.8 384.1 640 345.8 640 304 c 0 -94.4 -87.9 -171.5 -198.2 -175.8 c 4.1 15.2 6.2 31.2 6.2 47.8 l 0 0.6 c 87.2 6.7 144 67.5 144 127.4 c 0 28 -11.4 54.9 -32.7 77.2 c -14.3 15 -17.3 37.6 -7.5 55.8 c 1.1 2 2.2 4 3.2 5.9 c 2.5 4.5 5.2 9 7.9 13.6 c -17 -4.5 -33.9 -10.7 -49.9 -18 c -4.3 -1.9 -8.5 -3.9 -12.6 -6 c -9.5 -4.8 -20.3 -6.2 -30.7 -4.2 c -12.1 2.4 -24.7 3.6 -37.8 3.6 c -61.7 0 -110 -26.5 -136.8 -62.3 c -16 5.4 -32.8 9.4 -50 11.8 C 279 439.8 350 480 432 480 z" stroke-linecap="round"/>
</g>
</g>
</g>
</svg>