<svg xmlns="http://www.w3.org/2000/svg" xmlns:xlink="http://www.w3.org/1999/xlink" version="1.1" width="1000" height="1000" viewBox="0 0 1000 1000" xml:space="preserve">
<desc>Created with Fabric.js 3.5.0</desc>
<defs>
</defs>
<rect x="0" y="0" width="100%" height="100%" fill="rgba(255,255,255,0)"/>
<g transform="matrix(1.7842 0 0 1.7842 500.0051 500.0051)" id="180177">
<path style="stroke: none; stroke-width: 1; stroke-dasharray: none; stroke-linecap: butt; stroke-dashoffset: 0; stroke-linejoin: miter; stroke-miterlimit: 4; is-custom-font: none; font-file-url: none; fill: rgb(0,0,0); fill-rule: nonzero; opacity: 1;" vector-effect="non-scaling-stroke" transform=" translate(-255.9643, -256.025)" d="M 501.1 395.7 L 384 278.6 c -23.1 -23.1 -57.6 -27.6 -85.4 -13.9 L 192 158.1 V 96 L 64 0 L 0 64 l 96 128 h 62.1 l 106.6 106.6 c -13.6 27.8 -9.2 62.3 13.9 85.4 l 117.1 117.1 c 14.6 14.6 38.2 14.6 52.7 0 l 52.7 -52.7 c 14.5 -14.6 14.5 -38.2 0 -52.7 z M 331.7 225 c 28.3 0 54.9 11 74.9 31 l 19.4 19.4 c 15.8 -6.9 30.8 -16.5 43.8 -29.5 c 37.1 -37.1 49.7 -89.3 37.9 -136.7 c -2.2 -9 -13.5 -12.1 -20.1 -5.5 l -74.4 74.4 l -67.9 -11.3 L 334 98.9 l 74.4 -74.4 c 6.6 -6.6 3.4 -17.9 -5.7 -20.2 c -47.4 -11.7 -99.6 0.9 -136.6 37.9 c -28.5 28.5 -41.9 66.1 -41.2 103.6 l 82.1 82.1 c 8.1 -1.9 16.5 -2.9 24.7 -2.9 z m -103.9 82 l -56.7 -56.7 L 18.7 402.8 c -25 25 -25 65.5 0 90.5 s 65.5 25 90.5 0 l 123.6 -123.6 c -7.6 -19.9 -9.9 -41.6 -5 -62.7 z M 64 472 c -13.2 0 -24 -10.8 -24 -24 c 0 -13.3 10.7 -24 24 -24 s 24 10.7 24 24 c 0 13.2 -10.7 24 -24 24 z" stroke-linecap="round"/>
</g>
</svg>