<svg xmlns="http://www.w3.org/2000/svg" xmlns:xlink="http://www.w3.org/1999/xlink" version="1.1" width="1000" height="1000" viewBox="0 0 1000 1000" xml:space="preserve">
<desc>Created with Fabric.js 3.5.0</desc>
<defs>
</defs>
<rect x="0" y="0" width="100%" height="100%" fill="rgba(255,255,255,0)"/>
<g transform="matrix(1.5547 0 0 1.7431 497.9953 500.0056)" id="643533">
<path style="stroke: none; stroke-width: 1; stroke-dasharray: none; stroke-linecap: butt; stroke-dashoffset: 0; stroke-linejoin: miter; stroke-miterlimit: 4; is-custom-font: none; font-file-url: none; fill: rgb(0,0,0); fill-rule: nonzero; opacity: 1;" vector-effect="non-scaling-stroke" transform=" translate(-319.9981, -255.56)" d="M 319.1 351.1 c -35.35 0 -64 28.66 -64 64.01 s 28.66 64.01 64 64.01 c 35.34 0 64 -28.66 64 -64.01 S 355.3 351.1 319.1 351.1 z M 320 191.1 c -70.25 0 -137.9 25.6 -190.5 72.03 C 116.3 275.7 115 295.9 126.7 309.2 C 138.5 322.4 158.7 323.7 171.9 312 C 212.8 275.9 265.4 256 320 256 s 107.3 19.88 148.1 56 C 474.2 317.4 481.8 320 489.3 320 c 8.844 0 17.66 -3.656 24 -10.81 C 525 295.9 523.8 275.7 510.5 264 C 457.9 217.6 390.3 191.1 320 191.1 z M 630.2 156.7 C 546.3 76.28 436.2 32 320 32 S 93.69 76.28 9.844 156.7 c -12.75 12.25 -13.16 32.5 -0.9375 45.25 c 12.22 12.78 32.47 13.12 45.25 0.9375 C 125.1 133.1 220.4 96 320 96 s 193.1 37.97 265.8 106.9 C 592.1 208.8 600 211.8 608 211.8 c 8.406 0 16.81 -3.281 23.09 -9.844 C 643.3 189.2 642.9 168.1 630.2 156.7 z" stroke-linecap="round"/>
</g>
</svg>